<svg xmlns="http://www.w3.org/2000/svg" width="38.13" height="28.334" viewBox="0 0 38.13 28.334">
  <g id="g862" transform="translate(0 -8.221)">
    <path id="path12" d="M11.591,35.585a1.433,1.433,0,0,1-.076-.155,1.988,1.988,0,0,1-.135-1.12H2.366l13.4-23.574,4.4,7.731,1.275-2.256L17.6,9.457A2.342,2.342,0,0,0,15.73,8.221a2.084,2.084,0,0,0-1.815,1.251L.344,33.333a2.4,2.4,0,0,0-.119,2.252,2.089,2.089,0,0,0,1.986.958H13.577A2.084,2.084,0,0,1,11.591,35.585Z" transform="translate(0)" fill="#cfcfcf"/>
    <path id="path14" d="M52.268,36.193,41.116,16.547A2.35,2.35,0,0,0,39.237,15.3a2.075,2.075,0,0,0-1.815,1.248L35.979,19.07l1.283,2.256,1.986-3.516L50.281,37.17h-4.2a1.874,1.874,0,0,1-.088.953,1.166,1.166,0,0,1-.088.195l-.035.071A2.4,2.4,0,0,1,43.853,39.4h6.563a2.4,2.4,0,0,0,2.022-1.013A2.082,2.082,0,0,0,52.268,36.193Z" transform="translate(-14.543 -2.86)" fill="#adadad"/>
    <path id="path16" d="M39.032,40.95l.035-.071a1.166,1.166,0,0,0,.088-.195,1.874,1.874,0,0,0,.088-.953,2.9,2.9,0,0,0-.366-.977L30.427,23.887l-1.291-2.256-1.283,2.256L19.407,38.754a3.019,3.019,0,0,0-.326.978,1.987,1.987,0,0,0,.123,1.12,1.378,1.378,0,0,0,.076.155,2.087,2.087,0,0,0,1.986.957H37A2.408,2.408,0,0,0,39.032,40.95Zm-9.9-14.806,7.723,13.587H21.417Z" transform="translate(-7.7 -5.421)" fill="#bababa"/>
  </g>
</svg>
