<svg xmlns="http://www.w3.org/2000/svg" width="33.344" height="35.222" viewBox="0 0 33.344 35.222">
  <g id="Group_3120" data-name="Group 3120" transform="translate(-22.14 -370.111)">
    <path id="Path_895" data-name="Path 895" d="M24.375,396.841c2.66-1.709,5.77-4.646,4.587-8.086-.643-1.88-1.539-3.492-1.657-5.523a12.444,12.444,0,0,1,.74-5.061,12.854,12.854,0,0,1,15.855-7.49c5.918,1.776,9.988,8.649,7.539,14.638-1.417,3.458-2.049,6.137,1.121,8.815.854.74,2.933,1.82,2.926,3.114,0,1.695-3.33-.37-3.7-.655.422.74,4.609,5.1,1.946,5.412-2.453.285-4.62-3.14-6.093-4.609-2.475-2.471-2.046,3-2.057,4.124,0,1.783-1.276,5.394-3.537,3.041-1.849-1.942-1.161-5.038-2.46-7.2-1.454-2.364-3.8,2.364-4.413,3.23-.658.965-3.962,5.645-5.278,3.152-1.065-2.023.636-5.179,1.48-7.029-.307.666-2.471,1.647-3.1,1.968a8.422,8.422,0,0,1-4.49,1.036c-3.33-.24-.777-2,.581-2.878Z" transform="translate(0)" fill="#bababa"/>
  </g>
</svg>
