<svg xmlns="http://www.w3.org/2000/svg" width="29.741" height="15.833" viewBox="0 0 29.741 15.833">
  <g id="Group_3069" data-name="Group 3069" transform="translate(-15.286 -2.191)">
    <path id="Path_841" data-name="Path 841" d="M15.386,10.108c0-4.691,3.008-7.817,7.546-7.817s7.548,3.216,7.548,8.057l-.241.241H17.823c.12,3.126,2.164,5.232,5.109,5.232a4.975,4.975,0,0,0,4.811-3.309H30.15a7.468,7.468,0,0,1-7.218,5.413C18.394,17.924,15.386,14.8,15.386,10.108Zm12.54-1.625a4.806,4.806,0,0,0-4.994-4.089,4.8,4.8,0,0,0-4.989,4.089Z" transform="translate(0)" fill="#bababa" stroke="#fff" stroke-width="0.2"/>
    <path id="Path_842" data-name="Path 842" d="M27.214,9.536,21.952,2.411H24.9l3.7,5.2,3.668-5.2h2.916l-5.2,7.125,5.771,7.907H32.807L28.6,11.461l-4.239,5.982H21.41Z" transform="translate(9.078 0.181)" fill="#bababa" stroke="#fff" stroke-width="0.2"/>
  </g>
</svg>
