<svg xmlns="http://www.w3.org/2000/svg" width="63.63" height="22.81" viewBox="0 0 63.63 22.81">
  <g id="Group_3152" data-name="Group 3152" transform="translate(-4.307 -14.169)">
    <path id="Path_964" data-name="Path 964" d="M47.129,14.169a.341.341,0,0,0-.342.342v8.7a.231.231,0,0,1-.114.2.238.238,0,0,1-.239,0l-1.421-.819a.683.683,0,0,0-.682,0l-5.674,3.275a.7.7,0,0,0-.341.6v6.549a.681.681,0,0,0,.341.592l5.674,3.275a.679.679,0,0,0,.682,0l5.674-3.275a.681.681,0,0,0,.341-.592V16.693a.694.694,0,0,0-.352-.6L47.3,14.2a.331.331,0,0,0-.17-.034Zm-36.5,8.176a.641.641,0,0,0-.307.08L4.649,25.7a.679.679,0,0,0-.342.591l.012,8.79a.336.336,0,0,0,.171.3.331.331,0,0,0,.341,0L8.2,33.442a.7.7,0,0,0,.352-.591V28.746a.678.678,0,0,1,.341-.591l1.433-.83a.672.672,0,0,1,.342-.091.664.664,0,0,1,.341.091l1.432.83a.677.677,0,0,1,.341.591v4.1a.7.7,0,0,0,.352.591L16.5,35.375a.331.331,0,0,0,.341,0,.343.343,0,0,0,.171-.3l.011-8.789a.676.676,0,0,0-.341-.592L11,22.424a.64.64,0,0,0-.307-.079Zm50.985.08a.677.677,0,0,0-.341.091L55.6,25.79a.682.682,0,0,0-.342.592V32.93a.686.686,0,0,0,.352.591l5.628,3.208a.684.684,0,0,0,.671.012l3.411-1.9a.346.346,0,0,0,.182-.3.336.336,0,0,0-.171-.3l-5.708-3.275a.367.367,0,0,1-.182-.307V28.621a.351.351,0,0,1,.182-.3L61.4,27.3a.339.339,0,0,1,.342,0l1.774,1.023a.339.339,0,0,1,.17.3v1.614a.342.342,0,0,0,.512.3l3.4-1.978a.684.684,0,0,0,.342-.591V26.381a.683.683,0,0,0-.342-.591l-5.64-3.275a.678.678,0,0,0-.341-.091ZM44.65,27.314a.187.187,0,0,1,.091.022l1.945,1.125a.177.177,0,0,1,.091.148v2.251a.176.176,0,0,1-.091.148l-1.945,1.125a.17.17,0,0,1-.17,0l-1.944-1.125a.177.177,0,0,1-.091-.148V28.61a.177.177,0,0,1,.091-.148l1.944-1.125a.151.151,0,0,1,.08-.022h0Z" fill="#bababa"/>
    <path id="Path_965" data-name="Path 965" d="M34.122,25.506a.683.683,0,0,0-.342.091L28.107,28.86a.7.7,0,0,0-.341.6v6.549a.681.681,0,0,0,.341.591l5.674,3.275a.679.679,0,0,0,.682,0L40.137,36.6a.682.682,0,0,0,.342-.591v-6.55a.7.7,0,0,0-.342-.6L34.463,25.6a.672.672,0,0,0-.342-.091Zm33.93,5.845a.145.145,0,0,0-.068.011L66.893,32a.133.133,0,0,0-.068.114v1.251a.133.133,0,0,0,.068.114l1.091.625a.117.117,0,0,0,.125,0l1.092-.625a.135.135,0,0,0,.068-.114V32.112A.134.134,0,0,0,69.2,32l-1.092-.637a.091.091,0,0,0-.057-.012Z" transform="translate(-6.449 -3.116)" fill="#bababa"/>
  </g>
</svg>
