<svg xmlns="http://www.w3.org/2000/svg" width="68.01" height="23.957" viewBox="0 0 68.01 23.957">
  <g id="Group_3118" data-name="Group 3118" transform="translate(-8.989 -11.945)">
    <path id="path893" d="M31.375,11.952h5.5L22.98,35.9,8.989,11.952h5.63l8.361,14.42Z" transform="translate(0 -0.002)" fill="#cfcfcf" fill-rule="evenodd"/>
    <path id="path895" d="M29.21,11.945h5.235L26.01,26.395l-8.368-14.45H22.8l3.214,5.563Z" transform="translate(-3.037 0)" fill="#bababa" fill-rule="evenodd"/>
    <path id="path897" d="M57.026,18.9a.514.514,0,0,1,.295-.442,1.18,1.18,0,0,1,.615-.177.507.507,0,0,1,.553.336l3.138,10.5,3.121-10.5a.511.511,0,0,1,.535-.336,1.125,1.125,0,0,1,.633.195.542.542,0,0,1,.295.441.243.243,0,0,1-.009.053.294.294,0,0,0-.009.071l-3.62,11.75a.891.891,0,0,1-.946.513q-.749,0-.909-.513l-3.656-11.75a.6.6,0,0,1-.036-.141Zm9.325,9.047V23.349a.454.454,0,0,1,.223-.371.879.879,0,0,1,.526-.159.826.826,0,0,1,.509.167.465.465,0,0,1,.223.362v4.594a2.024,2.024,0,0,0,.606,1.432,1.948,1.948,0,0,0,2.872.008,2.012,2.012,0,0,0,.606-1.44V23.332a.444.444,0,0,1,.223-.354.883.883,0,0,1,.526-.159.866.866,0,0,1,.526.151.438.438,0,0,1,.205.362v4.612a3.216,3.216,0,0,1-1.044,2.377,3.533,3.533,0,0,1-4.958,0,3.216,3.216,0,0,1-1.044-2.377Zm8.255-.035V26.053A3.13,3.13,0,0,1,75.65,23.7a3.509,3.509,0,0,1,2.506-.99,3.451,3.451,0,0,1,2.407.928,3.012,3.012,0,0,1,1.017,2.323,2.242,2.242,0,0,1-.125.822.818.818,0,0,1-.384.442,1.625,1.625,0,0,1-.482.167,3.927,3.927,0,0,1-.6.036H76.087v.53a1.918,1.918,0,0,0,.7,1.555,2.773,2.773,0,0,0,1.828.583,2.718,2.718,0,0,0,1.025-.177,4.588,4.588,0,0,0,.7-.345.89.89,0,0,1,.428-.168.536.536,0,0,1,.428.221.713.713,0,0,1,.178.45q0,.407-.811.831a4.3,4.3,0,0,1-2.006.424,4.237,4.237,0,0,1-2.854-.945,3.109,3.109,0,0,1-1.106-2.483Zm1.48-1.467h3.3a1.167,1.167,0,0,0,.624-.115.525.525,0,0,0,.16-.45,2.031,2.031,0,0,0-2.033-2,2.063,2.063,0,0,0-1.445.557,1.786,1.786,0,0,0-.606,1.369Zm6.24,3.941a.912.912,0,0,1,.267-.663.885.885,0,0,1,.66-.274.865.865,0,0,1,.642.274.912.912,0,0,1,.267.663.893.893,0,0,1-.267.645.867.867,0,0,1-.642.274.924.924,0,0,1-.927-.919Zm1.317,4.223a.645.645,0,0,1,.178-.468.571.571,0,0,1,.428-.186.879.879,0,0,0,.91-.513,4.2,4.2,0,0,0,.214-1.537v-8.57a.432.432,0,0,1,.206-.371.906.906,0,0,1,.526-.141.953.953,0,0,1,.535.141.429.429,0,0,1,.214.371V31.9a4.312,4.312,0,0,1-.606,2.439,2.063,2.063,0,0,1-1.837.9q-.767,0-.767-.636Zm1.534-14.931a.773.773,0,0,1,.267-.583.936.936,0,0,1,.66-.247.911.911,0,0,1,.642.247.771.771,0,0,1,.268.583.8.8,0,0,1-.268.592.894.894,0,0,1-.642.256.927.927,0,0,1-.651-.256.785.785,0,0,1-.276-.592Zm2.78,10.319a.788.788,0,0,1,.151-.451.438.438,0,0,1,.366-.221.792.792,0,0,1,.41.212,3.178,3.178,0,0,0,.766.415,3.123,3.123,0,0,0,1.177.2,2.092,2.092,0,0,0,1.293-.318.976.976,0,0,0,.4-.8,1.111,1.111,0,0,0-.446-.927,3.1,3.1,0,0,0-1.088-.521q-.642-.177-1.284-.389a2.492,2.492,0,0,1-1.088-.707,1.88,1.88,0,0,1-.446-1.308,2.4,2.4,0,0,1,.722-1.741,2.971,2.971,0,0,1,2.2-.733,4.941,4.941,0,0,1,1.73.291q.785.292.785.663a.91.91,0,0,1-.169.477.491.491,0,0,1-.419.265,4.526,4.526,0,0,1-.687-.256,3.162,3.162,0,0,0-1.221-.256,1.719,1.719,0,0,0-1.222.38,1.155,1.155,0,0,0-.4.857.877.877,0,0,0,.446.777,3.679,3.679,0,0,0,1.1.442,12.869,12.869,0,0,1,1.293.389,2.421,2.421,0,0,1,1.088.786,2.233,2.233,0,0,1,.446,1.44,2.11,2.11,0,0,1-.785,1.732,3.4,3.4,0,0,1-2.194.636,4.538,4.538,0,0,1-2.068-.433q-.857-.433-.856-.91Z" transform="translate(-16.862 -2.223)" fill="#bababa" fill-rule="evenodd"/>
  </g>
</svg>
