<svg xmlns="http://www.w3.org/2000/svg" width="48.69" height="30.384" viewBox="0 0 48.69 30.384">
  <g id="Group_3156" data-name="Group 3156" transform="translate(-7.014 -689.792)">
    <path id="Path_968" data-name="Path 968" d="M9.36,705.47a1.365,1.365,0,0,0-.444-.311,1.364,1.364,0,0,0-1.06,0,1.369,1.369,0,0,0-.444.312,1.322,1.322,0,0,0-.3.448,1.472,1.472,0,0,0-.1.53,1.3,1.3,0,0,0,.1.53,1.391,1.391,0,0,0,.3.448,1.3,1.3,0,0,0,.974.409,1.346,1.346,0,0,0,.974-.409,1.29,1.29,0,0,0,.3-.444,1.387,1.387,0,0,0,0-1.059,1.334,1.334,0,0,0-.308-.448Zm16.3-3.163a18.971,18.971,0,0,0,.125,2.617h-.047c-.109-.214-.351-.612-.721-1.192l-8.881-13.941h-2.7v17.8h2.072V694.723a18.321,18.321,0,0,0-.1-2.442h.078a5.976,5.976,0,0,0,.565,1.114l9.122,14.194h2.551v-17.8H25.661Zm16.122,3.326H34.46v-6.166h6.408V697.59H34.46v-5.913h6.875v-1.885h-9v17.8h9.434Zm1.585-15.841v1.885h5.1v15.912h2.072V691.677H55.7v-1.885ZM23.059,712.014a3.912,3.912,0,0,0-1.371.923,4.367,4.367,0,0,0-.911,1.472,4.425,4.425,0,0,0-.269,1.71,4.17,4.17,0,0,0,1.052,2.929,3.634,3.634,0,0,0,2.8,1.122,4.781,4.781,0,0,0,2.259-.479l.008-.908a4.009,4.009,0,0,1-2.131.545,2.806,2.806,0,0,1-1.172-.206,2.756,2.756,0,0,1-.978-.682,3.4,3.4,0,0,1-.818-2.392,3.551,3.551,0,0,1,.876-2.52,2.966,2.966,0,0,1,2.286-.978,3.87,3.87,0,0,1,1.948.487v-.978a4.76,4.76,0,0,0-1.948-.343,4.219,4.219,0,0,0-1.628.3Zm9.711,2.789a2.617,2.617,0,0,0-2.033-.81,2.866,2.866,0,0,0-1.172.191,3.012,3.012,0,0,0-1,.639,3.179,3.179,0,0,0-.635,1.071,3.1,3.1,0,0,0-.171,1.235,3.056,3.056,0,0,0,.767,2.177,2.762,2.762,0,0,0,.943.662,2.682,2.682,0,0,0,1.13.207,2.792,2.792,0,0,0,1.153-.214,2.724,2.724,0,0,0,.962-.674,3.14,3.14,0,0,0,.787-2.244,3.226,3.226,0,0,0-.728-2.24Zm-.713,4a1.712,1.712,0,0,1-1.391.588,1.835,1.835,0,0,1-.779-.14,1.8,1.8,0,0,1-.643-.464,2.386,2.386,0,0,1-.526-1.64,2.538,2.538,0,0,1,.526-1.7,1.823,1.823,0,0,1,.639-.471,1.787,1.787,0,0,1,.779-.144,1.67,1.67,0,0,1,.767.14,1.719,1.719,0,0,1,.627.467,2.6,2.6,0,0,1,.487,1.69,2.55,2.55,0,0,1-.487,1.671Zm4.515-4.382a2.051,2.051,0,0,0-.612.978v-1.223h-.974v5.858h.974v-2.988a2.627,2.627,0,0,1,.4-1.542,1.191,1.191,0,0,1,.974-.565,1.121,1.121,0,0,1,.709.187v-.966a1.575,1.575,0,0,0-.553-.078A1.373,1.373,0,0,0,36.571,714.421Zm7.167,2.419a3.1,3.1,0,0,0-.623-2.068,2.226,2.226,0,0,0-.8-.576,2.182,2.182,0,0,0-.97-.168,2.475,2.475,0,0,0-1.947.861,3.2,3.2,0,0,0-.767,2.224,3.263,3.263,0,0,0,.709,2.244,2.508,2.508,0,0,0,.884.619,2.481,2.481,0,0,0,1.063.183,3.384,3.384,0,0,0,2.033-.557v-.88a2.923,2.923,0,0,1-1.811.654,1.752,1.752,0,0,1-.748-.117,1.809,1.809,0,0,1-.635-.413,2.174,2.174,0,0,1-.495-1.5h4.117Zm-4.117-.273a2.152,2.152,0,0,1,.573-1.239,1.5,1.5,0,0,1,1.122-.479,1.325,1.325,0,0,1,.588.1,1.3,1.3,0,0,1,.483.347,1.949,1.949,0,0,1,.39,1.258Z" transform="translate(0 0)" fill="#bababa"/>
  </g>
</svg>
