<svg xmlns="http://www.w3.org/2000/svg" width="40.362" height="24.221" viewBox="0 0 40.362 24.221">
  <g id="Group_3111" data-name="Group 3111" transform="translate(-8.627 -19.516)">
    <path id="Path_882" data-name="Path 882" d="M18.718,27.59q2.017-8.074,10.091-8.074c8.074,0,9.081,6.053,13.117,7.063q4.037,1.01,7.063-3.026-2.017,8.072-10.09,8.073c-8.074,0-9.081-6.053-13.117-7.063q-4.037-1.01-7.063,3.026ZM8.627,39.7q2.02-8.074,10.091-8.074c8.074,0,9.081,6.053,13.117,7.063q4.037,1.01,7.063-3.026-2.017,8.074-10.091,8.074c-8.074,0-9.081-6.053-13.117-7.063Q11.653,35.664,8.627,39.7Z" transform="translate(0 0)" fill="#bababa" fill-rule="evenodd"/>
  </g>
</svg>
