<svg xmlns="http://www.w3.org/2000/svg" width="34" height="34" viewBox="0 0 34 34">
  <g id="Group_3066" data-name="Group 3066" transform="translate(0.001 0.23)">
    <circle id="Ellipse_192" data-name="Ellipse 192" cx="17" cy="17" r="17" transform="translate(-0.001 -0.23)" fill="#bababa"/>
    <path id="Path_827" data-name="Path 827" d="M304.324,168.215c-1.066-4.706-3.586-6.253-3.857-6.844a7.153,7.153,0,0,1-.6-1.159c0-.013-.013-.035-.022-.056a1.25,1.25,0,0,1-.441,1,11.28,11.28,0,0,0-4,8.452,10.213,10.213,0,0,0,4.121,8.336l.059.042v0c0,.025.165,1.187.278,2.418h.407a23.958,23.958,0,0,1,.429-2.589l.033-.021a6.74,6.74,0,0,0,.663-.542l.024-.021a9.566,9.566,0,0,0,3.069-7.139,11.441,11.441,0,0,0-.166-1.871Zm-4.5,6.913s0-6.993.231-6.992c.18,0,.413,9.021.413,9.021C300.147,177.118,299.823,175.672,299.823,175.128Z" transform="translate(-282.931 -153.509)" fill="#fff"/>
  </g>
</svg>
