<?xml version="1.0" encoding="utf-8"?>
<!-- Generator: Adobe Illustrator 26.5.0, SVG Export Plug-In . SVG Version: 6.00 Build 0)  -->
<svg version="1.1" id="Layer_1" xmlns="http://www.w3.org/2000/svg" xmlns:xlink="http://www.w3.org/1999/xlink" x="0px" y="0px"
	 viewBox="0 0 1659.52 394.56" style="enable-background:new 0 0 1659.52 394.56;" xml:space="preserve">
<style type="text/css">
	.st0{fill:#2C2E7E;}
</style>
<g>
	<g>
		<g>
			<path class="st0" d="M126.35,184.61c-6.89,0-13.78,0-20.68,0c-0.34,0-0.67-0.01-1.01-0.01c-0.71,0-1.05-0.38-1.09-1.07
				c-0.01-0.1-0.02-0.19-0.02-0.29c0-4.05-0.03-8.1,0-12.15c0.01-1.04,0.26-1.24,1.32-1.28c1.16-0.04,2.31-0.03,3.47-0.03
				c7.42-0.01,14.84-0.02,22.27-0.03c1.87,0,1.88-0.01,2.6-1.79c2.35-5.76,4.69-11.51,7.03-17.27c0.61-1.49,0.61-1.5-0.52-2.61
				c-5.92-5.8-11.84-11.61-17.76-17.4c-0.83-0.81-1.71-1.56-2.52-2.39c-0.68-0.69-0.68-0.84,0.02-1.54c2.99-3,6-6,9.02-8.97
				c0.67-0.66,0.83-0.65,1.55,0.04c1.25,1.2,2.47,2.43,3.71,3.65c5.51,5.4,10.98,10.83,16.54,16.17c3.96,3.81,7.85,7.69,11.77,11.54
				c0.72,0.71,1.48,1.15,2.53,1.2c6.01,0.24,12.03,0.55,18.05,0.6c2.15,0.02,2.2,0.01,2.09-2.15c-0.21-3.89-0.49-7.79-0.75-11.68
				c-0.13-1.92-0.14-3.85-0.31-5.77c-0.09-0.99-0.42-1.71-1.12-2.38c-5.02-4.79-10.01-9.61-15.01-14.43
				c-4.93-4.75-9.86-9.49-14.79-14.24c-1.29-1.24-1.27-1.25,0.02-2.56c2.6-2.64,5.2-5.29,7.8-7.94c0.24-0.24,0.49-0.47,0.72-0.71
				c0.47-0.5,0.92-0.44,1.36,0.03c0.13,0.14,0.28,0.27,0.41,0.4c4.19,4.06,8.38,8.12,12.57,12.17c2.04,1.98,4.11,3.92,6.14,5.92
				c0.55,0.54,1.02,0.68,1.78,0.36c6.14-2.67,12.29-5.32,18.47-7.92c0.99-0.42,1.24-1,1.23-1.98c-0.01-5.83-0.33-11.66-0.26-17.49
				c0.04-3.28-0.03-6.55-0.03-9.83c0-1.97,0.12-2.1,2.14-2.14c2.51-0.04,5.01-0.03,7.52-0.05c1.11-0.01,2.22-0.01,3.33-0.01
				c1.97,0,2.07,0.09,2.08,2c0.02,3.23,0.04,6.46,0.06,9.69c0.02,3.66-0.08,7.33,0.07,10.99c0.3,7.71,0.15,15.42,0.23,23.13
				c0.01,0.88,0.31,1.52,0.87,2.19c1.97,2.34,4.41,4.17,6.65,6.21c2.07,1.88,4.21,3.68,6.31,5.52c0.96,0.84,1.01,0.86,1.85-0.06
				c4.27-4.65,8.52-9.31,12.81-13.94c0.64-0.69,0.9-1.41,0.88-2.33c-0.07-5.4-0.24-10.79-0.21-16.19
				c0.04-8.24-0.01-16.48-0.02-24.73c0-0.34,0-0.68,0.03-1.01c0.05-0.57,0.37-0.86,0.94-0.88c0.39-0.01,0.77-0.02,1.16-0.03
				c3.66,0,7.33-0.01,10.99-0.01c1.92,0,1.96,0.03,1.96,1.92c0.01,7.37,0.02,14.75,0.03,22.12c0,0.92,0.01,1.83,0.02,2.75
				c0.02,1.56,0.02,1.57,1.42,2.12c2.6,1.03,5.2,2.05,7.8,3.08c3.41,1.34,6.83,2.64,10.21,4.05c1.11,0.46,1.82,0.33,2.67-0.52
				c5.4-5.43,10.86-10.82,16.3-16.21c1.23-1.22,2.5-2.41,3.75-3.61c0.92-0.88,0.96-0.9,1.86-0.02c2.24,2.19,4.47,4.39,6.7,6.59
				c0.58,0.57,1.17,1.15,1.78,1.7c1.19,1.09,1.2,1.18,0.01,2.37c-2.08,2.08-4.16,4.15-6.26,6.22c-8.33,8.23-16.65,16.47-25.01,24.68
				c-0.92,0.91-1.31,1.86-1.41,3.15c-0.25,3.42-0.19,6.84-0.13,10.26c0.04,2.31,0.13,4.62,0.16,6.93c0.01,1.24,0.19,1.41,1.47,1.36
				c1.68-0.06,3.36-0.22,5.05-0.31c4.66-0.23,9.32-0.57,13.98-0.84c0.81-0.05,1.33-0.47,1.84-1c3.53-3.56,7.07-7.11,10.59-10.68
				c6.26-6.34,12.52-12.7,18.78-19.05c0.1-0.1,0.2-0.21,0.3-0.31c0.83-0.78,0.94-0.8,1.78-0.01c2.14,2.02,4.26,4.05,6.38,6.08
				c0.87,0.83,1.74,1.66,2.59,2.53c0.7,0.71,0.69,0.84,0.05,1.55c-0.39,0.43-0.81,0.82-1.22,1.24c-5.61,5.7-11.22,11.41-16.83,17.11
				c-1.23,1.25-1.23,1.25-0.51,2.87c2.45,5.45,4.9,10.9,7.35,16.35c0.2,0.44,0.44,0.86,0.61,1.31c0.3,0.78,0.82,1.13,1.67,1.06
				c1.05-0.09,2.11-0.17,3.17-0.18c5.01-0.05,10.03,0,15.04-0.14c2.94-0.08,5.87-0.17,8.81-0.2c0.53-0.01,1.06-0.02,1.59,0
				c1.29,0.03,1.43,0.16,1.46,1.39c0.04,1.54,0.1,3.08,0.17,4.62c0.11,2.41,0.08,4.82,0.07,7.23c0,1.39-0.16,1.54-1.62,1.56
				c-2.17,0.03-4.34,0.02-6.51,0.04c-8.77,0.1-17.54,0.27-26.31,0.37c-4.09,0.05-8.19,0.14-12.28,0.19
				c-0.83,0.01-1.45,0.29-2.06,0.83c-4.48,3.97-8.42,8.48-12.67,12.68c-0.78,0.77-0.77,0.84,0.08,1.58
				c3.48,3.05,6.97,6.08,10.46,9.12c1.49,1.3,2.99,2.58,4.48,3.88c0.53,0.47,1.11,0.72,1.84,0.66c4.09-0.35,8.19-0.16,12.28-0.21
				c3.47-0.05,6.94,0.05,10.41-0.07c6.36-0.24,12.72-0.19,19.08-0.24c2.17-0.02,2.18-0.01,2.2,2.13c0.03,3.66,0.05,7.33,0.07,10.99
				c0.01,1.52-0.11,1.65-1.64,1.67c-5.78,0.05-11.57,0.1-17.35,0.09c-2.84,0-5.68,0.17-8.52,0.2c-1.02,0.01-1.56,0.42-1.93,1.36
				c-1.96,5.03-3.98,10.03-5.97,15.05c-0.41,1.03-0.78,2.08-1.23,3.09c-0.33,0.76-0.27,1.32,0.36,1.92c2.98,2.81,5.92,5.66,8.88,8.5
				c0.56,0.53,1.14,1.04,1.69,1.57c3.13,3.01,6.25,6.02,9.37,9.03c0.28,0.27,0.56,0.53,0.82,0.81c0.73,0.77,0.74,0.84-0.04,1.64
				c-2.79,2.86-5.6,5.72-8.41,8.56c-1.1,1.11-1.14,1.09-2.33,0.03c-0.65-0.58-1.29-1.16-1.91-1.76
				c-6.66-6.42-13.31-12.85-19.98-19.27c-3.4-3.27-6.83-6.52-10.24-9.79c-0.57-0.54-1.11-0.98-1.98-1.02
				c-6.16-0.31-12.32-0.55-18.49-0.55c-2.14,0-2.19,0-2.06,2.18c0.2,3.27,0.49,6.53,0.73,9.8c0.15,2.16,0.32,4.32,0.4,6.49
				c0.06,1.6,0.47,2.86,1.76,4.04c4.94,4.52,9.73,9.2,14.59,13.81c4.89,4.64,9.8,9.27,14.71,13.9c0.21,0.2,0.42,0.4,0.62,0.6
				c0.79,0.83,0.82,0.93,0.01,1.76c-2.34,2.43-4.69,4.85-7.04,7.27c-0.5,0.52-1,1.04-1.53,1.54c-0.85,0.81-0.95,0.82-1.78,0.07
				c-0.82-0.74-1.64-1.49-2.45-2.25c-5.5-5.2-11-10.39-16.47-15.62c-0.78-0.75-1.45-0.86-2.44-0.41c-5.89,2.64-11.8,5.25-17.73,7.8
				c-1.06,0.46-1.41,1.05-1.4,2.18c0.11,8.48,0.42,16.96,0.4,25.44c0,0.91,0.12,1.83,0.14,2.74c0.02,0.69-0.32,1.08-1.05,1.08
				c-0.1,0-0.19,0.01-0.29,0.01c-4,0.09-7.99,0.19-11.99,0.26c-1.59,0.03-1.67-0.11-1.72-1.74c-0.2-6.02-0.17-12.05-0.35-18.06
				c-0.16-5.06-0.07-10.12-0.29-15.17c-0.16-3.61-0.16-7.22-0.21-10.84c-0.01-0.89-0.31-1.53-0.91-2.18
				c-2.95-3.21-6.45-5.78-9.71-8.65c-1.45-1.27-2.92-2.52-4.41-3.74c-0.84-0.69-0.92-0.67-1.66,0.11
				c-4.23,4.49-8.45,8.99-12.69,13.47c-0.59,0.62-0.67,1.33-0.71,2.12c-0.36,8.62-0.07,17.25-0.32,25.87
				c-0.15,5.16-0.1,10.31-0.21,15.46c-0.03,1.53-0.13,1.63-1.68,1.63c-3.86-0.01-7.71-0.03-11.57-0.05c-0.19,0-0.39,0-0.58-0.02
				c-0.99-0.09-1.17-0.27-1.25-1.22c-0.01-0.14-0.01-0.29-0.01-0.43c0.02-3.95-0.09-7.91,0.09-11.85c0.21-4.43,0.06-8.87,0.21-13.29
				c0.04-1.25-0.4-1.88-1.57-2.34c-5.99-2.4-11.96-4.86-17.92-7.37c-1.03-0.43-1.65-0.22-2.39,0.51c-4.23,4.15-8.5,8.26-12.76,12.38
				c-2.5,2.41-5,4.81-7.51,7.21c-0.95,0.91-1.03,0.91-1.98-0.04c-2.87-2.86-5.73-5.73-8.58-8.6c-0.9-0.9-0.91-1.01-0.04-1.86
				c3.22-3.11,6.47-6.21,9.7-9.31c0.9-0.87,1.81-1.73,2.71-2.6c6.31-6.09,12.59-12.22,18.97-18.23c1.32-1.24,2.01-2.44,2.12-4.29
				c0.14-2.33-0.21-4.61-0.27-6.92c-0.06-2.4-0.31-4.8-0.48-7.21c-0.03-0.38-0.01-0.77-0.05-1.16c-0.13-1.19-0.37-1.42-1.56-1.35
				c-6.3,0.36-12.59,0.75-18.89,1.08c-0.81,0.04-1.34,0.42-1.86,0.94c-2.38,2.39-4.78,4.77-7.16,7.15
				c-7.4,7.39-14.81,14.77-22.21,22.16c-0.17,0.17-0.34,0.35-0.51,0.51c-0.75,0.68-0.83,0.71-1.54,0.02
				c-3.02-2.9-6.04-5.82-9.03-8.75c-0.8-0.78-0.79-0.86,0.08-1.74c2.65-2.67,5.31-5.32,7.97-7.98c3.44-3.44,6.89-6.88,10.33-10.32
				c1-1,1.01-1.01,0.42-2.36c-2.59-5.91-5.22-11.81-7.79-17.74c-0.4-0.93-0.96-1.29-1.98-1.28c-5.06,0.05-10.13-0.08-15.18,0.1
				c-4.14,0.15-8.29,0.08-12.43,0.18c-0.43,0.01-0.87-0.01-1.3-0.02c-0.71-0.01-1.05-0.4-1.08-1.09c-0.01-0.24-0.02-0.48-0.03-0.72
				c-0.01-3.71-0.03-7.42-0.03-11.13c0-1.77,0.09-1.85,1.9-1.85c7.28-0.02,14.56,0.08,21.83-0.09c7.66-0.18,15.32-0.14,22.98-0.19
				c0.76-0.01,1.41-0.17,1.98-0.7c0.84-0.8,1.73-1.53,2.55-2.35c3.35-3.32,6.69-6.67,10.03-10.01c0.2-0.2,0.4-0.42,0.61-0.62
				c0.34-0.33,0.38-0.65-0.02-0.97c-0.15-0.12-0.28-0.26-0.43-0.39c-4.68-4.16-9.38-8.3-14.04-12.49c-0.93-0.83-1.92-1.12-3.15-1.12
				c-6.84,0.04-13.69,0.02-20.53,0.02C126.35,184.57,126.35,184.59,126.35,184.61z M178.36,160.31c0,0.01,0,0.03,0,0.04
				c-4.77,0-9.54,0.03-14.31-0.02c-1.08-0.01-1.69,0.35-2.08,1.34c-0.58,1.48-1.25,2.92-1.89,4.38c-1.41,3.27-2.84,6.54-4.24,9.82
				c-0.48,1.11-0.46,1.14,0.44,1.97c1.06,0.98,2.15,1.93,3.24,2.88c6.4,5.63,12.81,11.26,19.21,16.89c0.95,0.83,0.94,0.89,0.07,1.81
				c-0.27,0.28-0.54,0.55-0.82,0.82c-6.48,6.47-12.94,12.95-19.45,19.4c-0.8,0.8-0.98,1.49-0.53,2.54c1.97,4.61,3.86,9.25,5.8,13.87
				c0.58,1.39,0.6,1.43,2.14,1.36c3.85-0.19,7.7-0.36,11.53-0.66c1.64-0.13,3.27-0.15,4.9-0.25c4.18-0.28,8.36-0.56,12.54-0.78
				c2.35-0.12,2.36-0.07,2.36,2.35c-0.01,8.82,0.03,17.63,0.18,26.45c0.02,1.18,0.41,1.83,1.51,2.3c4.61,1.96,9.19,3.99,13.79,5.98
				c1.37,0.59,1.4,0.6,2.38-0.43c2.77-2.89,5.52-5.79,8.27-8.7c1.75-1.86,3.48-3.73,5.22-5.61c2.42-2.61,4.85-5.22,7.26-7.85
				c0.5-0.54,0.95-0.58,1.48-0.09c0.18,0.16,0.38,0.3,0.56,0.46c3.95,3.53,7.9,7.07,11.85,10.6c3.52,3.14,7.06,6.27,10.57,9.43
				c0.62,0.56,1.18,0.69,1.95,0.36c4.4-1.85,8.8-3.67,13.22-5.48c0.69-0.28,0.97-0.73,0.92-1.44c-0.02-0.34,0.01-0.68-0.01-1.01
				c-0.37-4.85-0.17-9.73-0.47-14.58c-0.22-3.56,0.01-7.13-0.31-10.69c-0.06-0.72-0.04-1.44-0.04-2.17
				c-0.01-1.41,0.11-1.53,1.58-1.57c0.77-0.02,1.54-0.02,2.31-0.02c8.77-0.02,17.54-0.07,26.3-0.29c0.93-0.02,1.63-0.15,2.05-1.16
				c1.97-4.77,4-9.5,6-14.25c0.52-1.24,0.51-1.27-0.55-2.2c-1.27-1.11-2.56-2.2-3.83-3.3c-6.12-5.29-12.24-10.59-18.37-15.88
				c-1.29-1.11-1.31-1.21-0.08-2.46c0.1-0.1,0.21-0.2,0.31-0.31c6.46-6.56,12.92-13.11,19.38-19.67c1.18-1.2,1.18-1.22,0.53-2.76
				c-1.07-2.53-2.14-5.06-3.22-7.58c-0.92-2.17-1.85-4.34-2.77-6.52c-0.26-0.62-0.56-1.02-1.38-0.96c-5.28,0.37-10.57,0.72-15.85,1
				c-4.81,0.25-9.61,0.51-14.42,0.86c-1.13,0.08-1.24-0.02-1.25-1.18c-0.06-5.39-0.14-10.79-0.18-16.18
				c-0.03-4.05-0.01-8.1-0.02-12.14c0-2.3,0.13-2.02-1.99-2.92c-4.44-1.88-8.89-3.71-13.34-5.57c-1.44-0.6-1.49-0.62-2.61,0.59
				c-1.8,1.94-3.57,3.92-5.35,5.88c-4.88,5.33-9.76,10.66-14.64,15.99c-0.91,0.99-1.05,1.01-2.07,0.05
				c-1.37-1.29-2.74-2.57-4.09-3.87c-5.46-5.24-10.92-10.47-16.34-15.75c-0.77-0.75-1.4-0.89-2.4-0.47
				c-4.53,1.9-9.1,3.71-13.66,5.56c-1.92,0.78-1.92,0.78-1.91,2.84c0,0.19,0.01,0.39,0.01,0.58c0.1,5.64,0.2,11.27,0.31,16.91
				c0.06,2.99-0.07,5.97,0.22,8.96c0.05,0.52,0.02,1.06,0,1.59c-0.02,0.57-0.31,0.89-0.9,0.92c-0.39,0.02-0.77,0.02-1.16,0.03
				C187.61,160.31,182.99,160.31,178.36,160.31z"/>
			<path class="st0" d="M186.48,230.32c-6.9,0-12.45-5.43-12.42-12.19c0.02-6.02,4.84-12.18,12.51-12.14
				c6.87,0.04,12.39,5.28,12.33,12.29C198.84,225.33,193,230.42,186.48,230.32z"/>
			<path class="st0" d="M284.18,228.28c-6.71-0.03-12.33-5.58-12.34-12.18c-0.01-6.64,5.72-12.23,12.49-12.2
				c6.78,0.03,12.44,5.65,12.38,12.29C296.67,222.92,291.07,228.31,284.18,228.28z"/>
			<path class="st0" d="M296.78,175.27c0.29,5.15-3.93,12.18-12.4,12.15c-7.98-0.03-12.39-6.46-12.34-12.11
				c0.06-6.8,5.48-12.18,12.37-12.23C291.4,163.03,297.05,168.92,296.78,175.27z"/>
			<path class="st0" d="M255.29,134.17c6.42-0.16,12.39,5.4,12.31,12.28c-0.07,5.65-4.44,12.05-12.42,12.03
				c-7.96-0.02-12.37-6.4-12.39-12.22C242.78,139.8,248.52,133.93,255.29,134.17z"/>
			<path class="st0" d="M169.38,177.14c0.05-6.73,5.63-12.1,12.56-12c7.33,0.11,12.3,6.17,12.19,12.41
				c-0.1,5.64-4.64,12.01-12.53,11.93C173.72,189.39,169.14,182.92,169.38,177.14z"/>
			<path class="st0" d="M211.2,136.45c6.84-0.24,12.46,5.69,12.4,12.17c-0.07,6.65-5.59,12.15-12.36,12.11
				c-6.99-0.04-12.43-5.21-12.45-12.15C198.76,141.07,205.15,136.18,211.2,136.45z"/>
			<path class="st0" d="M257.24,256.95c-6.59,0.29-12.42-5.51-12.37-12.19c0.05-6.49,5.72-12.08,12.41-12.07
				c5.81,0.01,12.42,4.3,12.42,12.18C269.69,252.81,262.91,257.29,257.24,256.95z"/>
			<path class="st0" d="M215.72,232.52c6.8,0,12.47,5.56,12.45,12.21c-0.02,6.67-5.69,12.18-12.5,12.17
				c-6.71-0.01-12.35-5.54-12.39-12.14C203.25,238.12,208.94,232.52,215.72,232.52z"/>
		</g>
	</g>
	<g>
		<path class="st0" d="M457.12,243.45c-5.93,0-11.47-1.12-16.63-3.35c-5.16-2.23-9.66-5.34-13.51-9.33c-3.84-3.99-6.85-8.66-9-14
			c-2.16-5.34-3.24-11.13-3.24-17.35c0-6.15,1.08-11.88,3.24-17.18c2.16-5.31,5.16-9.95,9-13.94c3.84-3.99,8.33-7.12,13.45-9.39
			c5.12-2.27,10.69-3.4,16.69-3.4c5.64,0,10.49,0.73,14.55,2.2c4.06,1.47,8.14,3.88,12.24,7.25c0.59,0.44,1.04,0.9,1.37,1.37
			c0.33,0.48,0.55,0.95,0.66,1.43c0.11,0.48,0.17,1.04,0.17,1.7c0,1.39-0.49,2.54-1.48,3.46c-0.99,0.92-2.18,1.43-3.57,1.54
			c-1.39,0.11-2.75-0.35-4.06-1.37c-2.71-2.34-5.51-4.13-8.4-5.38c-2.89-1.24-6.72-1.87-11.47-1.87c-4.32,0-8.38,0.88-12.19,2.64
			c-3.81,1.76-7.16,4.17-10.05,7.25c-2.89,3.07-5.14,6.64-6.75,10.71c-1.61,4.06-2.42,8.4-2.42,13.01c0,4.69,0.8,9.06,2.42,13.12
			c1.61,4.06,3.86,7.63,6.75,10.71c2.89,3.07,6.24,5.47,10.05,7.19c3.8,1.72,7.87,2.58,12.19,2.58c3.73,0,7.26-0.64,10.6-1.92
			c3.33-1.28,6.53-3.06,9.61-5.33c1.32-0.95,2.62-1.37,3.9-1.26c1.28,0.11,2.36,0.62,3.24,1.54c0.88,0.92,1.32,2.18,1.32,3.79
			c0,0.73-0.15,1.45-0.44,2.14c-0.29,0.7-0.73,1.34-1.32,1.92c-3.95,3.15-8.18,5.53-12.68,7.14S462.1,243.45,457.12,243.45z"/>
		<path class="st0" d="M527.94,242.79c-5.34,0-10.14-1.33-14.38-4.01c-4.25-2.67-7.6-6.29-10.05-10.87
			c-2.45-4.57-3.68-9.75-3.68-15.54c0-5.78,1.33-10.98,4.01-15.59c2.67-4.61,6.29-8.25,10.87-10.93c4.57-2.67,9.72-4.01,15.43-4.01
			c5.71,0,10.83,1.34,15.37,4.01c4.54,2.67,8.14,6.31,10.82,10.93c2.67,4.61,4.01,9.81,4.01,15.59h-4.28
			c0,5.78-1.23,10.96-3.68,15.54c-2.45,4.58-5.8,8.2-10.05,10.87C538.08,241.46,533.29,242.79,527.94,242.79z M530.14,232.91
			c3.73,0,7.06-0.9,9.99-2.69c2.93-1.79,5.23-4.25,6.92-7.36c1.68-3.11,2.53-6.6,2.53-10.49c0-3.95-0.84-7.48-2.53-10.6
			c-1.68-3.11-3.99-5.56-6.92-7.36c-2.93-1.79-6.26-2.69-9.99-2.69c-3.66,0-6.97,0.9-9.94,2.69c-2.96,1.79-5.31,4.25-7.03,7.36
			c-1.72,3.11-2.58,6.64-2.58,10.6c0,3.88,0.86,7.38,2.58,10.49c1.72,3.11,4.06,5.56,7.03,7.36
			C523.17,232.01,526.48,232.91,530.14,232.91z M530.58,172.85c-1.61,0-2.95-0.53-4.01-1.59c-1.06-1.06-1.59-2.4-1.59-4.01
			c0-1.54,0.44-2.78,1.32-3.73l10.76-10.76c1.1-1.1,2.42-1.65,3.95-1.65c1.68,0,3.04,0.55,4.06,1.65c1.02,1.1,1.54,2.45,1.54,4.06
			c0,0.73-0.11,1.43-0.33,2.09c-0.22,0.66-0.62,1.25-1.21,1.76l-10.65,10.65C533.39,172.34,532.12,172.85,530.58,172.85z
			 M554.73,242.46c-1.61,0-2.95-0.53-4.01-1.59c-1.06-1.06-1.59-2.4-1.59-4.01v-16.8l2.09-11.64l9.11,3.95v24.49
			c0,1.61-0.53,2.95-1.59,4.01C557.68,241.93,556.34,242.46,554.73,242.46z"/>
		<path class="st0" d="M582.62,242.46c-1.61,0-2.95-0.53-4.01-1.59c-1.06-1.06-1.59-2.4-1.59-4.01V188c0-1.68,0.53-3.04,1.59-4.06
			c1.06-1.02,2.4-1.54,4.01-1.54c1.68,0,3.04,0.51,4.06,1.54c1.02,1.03,1.54,2.38,1.54,4.06v48.86c0,1.61-0.51,2.95-1.54,4.01
			C585.66,241.93,584.31,242.46,582.62,242.46z M619.3,242.46c-1.61,0-2.95-0.53-4.01-1.59c-1.06-1.06-1.59-2.4-1.59-4.01v-31.4
			c0-4.61-1.14-8.03-3.4-10.27c-2.27-2.23-5.23-3.35-8.89-3.35c-3.81,0-6.96,1.32-9.44,3.95c-2.49,2.64-3.73,6-3.73,10.1h-6.92
			c0-4.76,0.95-8.95,2.86-12.57c1.9-3.62,4.54-6.46,7.91-8.51c3.37-2.05,7.21-3.07,11.53-3.07c4.17,0,7.87,0.92,11.09,2.75
			c3.22,1.83,5.73,4.52,7.52,8.07c1.79,3.55,2.69,7.85,2.69,12.9v31.4c0,1.61-0.51,2.95-1.54,4.01
			C622.33,241.93,620.98,242.46,619.3,242.46z M655.86,242.46c-1.61,0-2.95-0.53-4.01-1.59c-1.06-1.06-1.59-2.4-1.59-4.01v-31.4
			c0-4.61-1.14-8.03-3.4-10.27c-2.27-2.23-5.23-3.35-8.89-3.35c-3.81,0-6.94,1.32-9.39,3.95c-2.45,2.64-3.68,6-3.68,10.1h-9.11
			c0-4.76,1.02-8.95,3.07-12.57c2.05-3.62,4.92-6.46,8.62-8.51c3.7-2.05,7.92-3.07,12.68-3.07c4.17,0,7.87,0.92,11.09,2.75
			c3.22,1.83,5.73,4.52,7.52,8.07c1.79,3.55,2.69,7.85,2.69,12.9v31.4c0,1.61-0.51,2.95-1.54,4.01
			C658.9,241.93,657.54,242.46,655.86,242.46z"/>
		<path class="st0" d="M705.05,242.79c-5.34,0-10.14-1.33-14.38-4.01c-4.25-2.67-7.6-6.29-10.05-10.87
			c-2.45-4.57-3.68-9.75-3.68-15.54c0-5.78,1.33-10.98,4.01-15.59c2.67-4.61,6.29-8.25,10.87-10.93c4.57-2.67,9.72-4.01,15.43-4.01
			c5.71,0,10.83,1.34,15.37,4.01c4.54,2.67,8.14,6.31,10.82,10.93c2.67,4.61,4.01,9.81,4.01,15.59h-4.28
			c0,5.78-1.23,10.96-3.68,15.54c-2.45,4.58-5.8,8.2-10.05,10.87C715.19,241.46,710.39,242.79,705.05,242.79z M707.25,232.91
			c3.73,0,7.06-0.9,9.99-2.69c2.93-1.79,5.23-4.25,6.92-7.36c1.68-3.11,2.53-6.6,2.53-10.49c0-3.95-0.84-7.48-2.53-10.6
			c-1.68-3.11-3.99-5.56-6.92-7.36c-2.93-1.79-6.26-2.69-9.99-2.69c-3.66,0-6.97,0.9-9.94,2.69c-2.96,1.79-5.31,4.25-7.03,7.36
			c-1.72,3.11-2.58,6.64-2.58,10.6c0,3.88,0.86,7.38,2.58,10.49c1.72,3.11,4.06,5.56,7.03,7.36
			C700.27,232.01,703.59,232.91,707.25,232.91z M731.84,242.46c-1.61,0-2.95-0.53-4.01-1.59c-1.06-1.06-1.59-2.4-1.59-4.01v-16.8
			l2.09-11.64l9.11,3.95v24.49c0,1.61-0.53,2.95-1.59,4.01C734.79,241.93,733.45,242.46,731.84,242.46z"/>
		<path class="st0" d="M759.62,242.35c-1.76,0-3.11-0.46-4.06-1.37c-0.95-0.92-1.43-2.29-1.43-4.12v-49.08
			c0-1.76,0.48-3.11,1.43-4.06c0.95-0.95,2.31-1.43,4.06-1.43c1.83,0,3.2,0.46,4.12,1.37c0.91,0.92,1.37,2.29,1.37,4.12v49.08
			c0,1.76-0.46,3.11-1.37,4.06C762.82,241.88,761.45,242.35,759.62,242.35z M759.51,204.8c0-4.39,1.08-8.33,3.24-11.8
			c2.16-3.48,5.07-6.24,8.73-8.29c3.66-2.05,7.69-3.07,12.08-3.07c4.39,0,7.67,0.71,9.83,2.14c2.16,1.43,2.98,3.13,2.47,5.11
			c-0.22,1.03-0.64,1.81-1.26,2.36c-0.62,0.55-1.34,0.9-2.14,1.04c-0.81,0.15-1.68,0.11-2.64-0.11c-4.69-0.95-8.89-1.02-12.63-0.22
			c-3.73,0.81-6.68,2.31-8.84,4.5c-2.16,2.2-3.24,4.98-3.24,8.35H759.51z"/>
		<path class="st0" d="M832.53,242.79c-5.34,0-10.14-1.33-14.38-4.01c-4.25-2.67-7.6-6.29-10.05-10.87
			c-2.45-4.57-3.68-9.75-3.68-15.54c0-5.78,1.33-10.98,4.01-15.59c2.67-4.61,6.29-8.25,10.87-10.93c4.57-2.67,9.72-4.01,15.43-4.01
			c5.71,0,10.83,1.34,15.37,4.01c4.54,2.67,8.14,6.31,10.82,10.93c2.67,4.61,4.01,9.81,4.01,15.59h-4.28
			c0,5.78-1.23,10.96-3.68,15.54c-2.45,4.58-5.8,8.2-10.05,10.87C842.67,241.46,837.87,242.79,832.53,242.79z M834.72,232.91
			c3.73,0,7.06-0.9,9.99-2.69c2.93-1.79,5.23-4.25,6.92-7.36c1.68-3.11,2.53-6.6,2.53-10.49c0-3.95-0.84-7.48-2.53-10.6
			c-1.68-3.11-3.99-5.56-6.92-7.36c-2.93-1.79-6.26-2.69-9.99-2.69c-3.66,0-6.97,0.9-9.94,2.69c-2.96,1.79-5.31,4.25-7.03,7.36
			c-1.72,3.11-2.58,6.64-2.58,10.6c0,3.88,0.86,7.38,2.58,10.49c1.72,3.11,4.06,5.56,7.03,7.36
			C827.75,232.01,831.06,232.91,834.72,232.91z M859.32,242.46c-1.61,0-2.95-0.53-4.01-1.59c-1.06-1.06-1.59-2.4-1.59-4.01v-16.8
			l2.09-11.64l9.11,3.95v24.49c0,1.61-0.53,2.95-1.59,4.01C862.27,241.93,860.93,242.46,859.32,242.46z"/>
		<path class="st0" d="M941.01,242.79c-5.71,0-10.85-1.33-15.43-4.01c-4.58-2.67-8.2-6.31-10.87-10.93
			c-2.67-4.61-4.01-9.81-4.01-15.59c0-5.78,1.22-10.96,3.68-15.54c2.45-4.57,5.8-8.2,10.05-10.87c4.24-2.67,9.04-4.01,14.38-4.01
			c4.32,0,8.31,0.9,11.97,2.69c3.66,1.79,6.73,4.23,9.22,7.3V162.2c0-1.68,0.53-3.04,1.59-4.06c1.06-1.02,2.4-1.54,4.01-1.54
			c1.68,0,3.04,0.51,4.06,1.54c1.02,1.03,1.54,2.38,1.54,4.06v50.07c0,5.78-1.34,10.98-4.01,15.59c-2.67,4.61-6.28,8.25-10.82,10.93
			C951.84,241.46,946.72,242.79,941.01,242.79z M941.01,232.91c3.73,0,7.06-0.9,9.99-2.69c2.93-1.79,5.23-4.26,6.92-7.41
			c1.68-3.15,2.53-6.66,2.53-10.54c0-3.95-0.84-7.47-2.53-10.54c-1.68-3.07-3.99-5.51-6.92-7.3c-2.93-1.79-6.26-2.69-9.99-2.69
			c-3.66,0-6.97,0.9-9.94,2.69c-2.96,1.79-5.31,4.23-7.03,7.3c-1.72,3.08-2.58,6.59-2.58,10.54c0,3.88,0.86,7.39,2.58,10.54
			c1.72,3.15,4.06,5.62,7.03,7.41C934.04,232.01,937.35,232.91,941.01,232.91z"/>
		<path class="st0" d="M1019.19,242.79c-6.08,0-11.47-1.3-16.2-3.9c-4.72-2.6-8.42-6.18-11.09-10.76
			c-2.67-4.57-4.01-9.83-4.01-15.76c0-6,1.26-11.29,3.79-15.87c2.53-4.57,6.02-8.16,10.49-10.76c4.46-2.6,9.59-3.9,15.37-3.9
			c5.71,0,10.61,1.26,14.71,3.79c4.1,2.53,7.23,6,9.39,10.43c2.16,4.43,3.24,9.54,3.24,15.32c0,1.39-0.48,2.54-1.43,3.46
			c-0.95,0.92-2.16,1.37-3.62,1.37h-44.25v-8.78h43.92l-4.5,3.07c-0.07-3.66-0.81-6.93-2.2-9.83c-1.39-2.89-3.37-5.18-5.93-6.86
			c-2.56-1.68-5.67-2.53-9.33-2.53c-4.17,0-7.74,0.92-10.71,2.74c-2.96,1.83-5.21,4.34-6.75,7.52c-1.54,3.18-2.31,6.79-2.31,10.82
			c0,4.03,0.92,7.61,2.75,10.76c1.83,3.15,4.35,5.64,7.58,7.47c3.22,1.83,6.92,2.75,11.09,2.75c2.27,0,4.59-0.42,6.97-1.26
			c2.38-0.84,4.3-1.81,5.76-2.91c1.1-0.8,2.29-1.23,3.57-1.26c1.28-0.04,2.4,0.35,3.35,1.15c1.24,1.1,1.9,2.31,1.98,3.62
			c0.07,1.32-0.51,2.45-1.76,3.4c-2.49,1.98-5.58,3.59-9.28,4.83C1026.09,242.17,1022.55,242.79,1019.19,242.79z"/>
		<path class="st0" d="M1105.6,242.35c-3.22,0-6.08-0.88-8.56-2.63c-2.49-1.76-4.43-4.15-5.82-7.19c-1.39-3.04-2.09-6.53-2.09-10.49
			v-59.95c0-1.61,0.51-2.93,1.54-3.95c1.02-1.02,2.34-1.54,3.95-1.54c1.61,0,2.93,0.51,3.95,1.54c1.02,1.03,1.54,2.34,1.54,3.95
			v59.95c0,2.71,0.51,4.94,1.54,6.7c1.02,1.76,2.34,2.63,3.95,2.63h2.75c1.46,0,2.65,0.51,3.57,1.54c0.92,1.03,1.37,2.34,1.37,3.95
			c0,1.61-0.7,2.93-2.09,3.95c-1.39,1.03-3.18,1.54-5.38,1.54H1105.6z"/>
		<path class="st0" d="M1149.3,242.79c-5.34,0-10.14-1.33-14.38-4.01c-4.25-2.67-7.6-6.29-10.05-10.87
			c-2.45-4.57-3.68-9.75-3.68-15.54c0-5.78,1.33-10.98,4.01-15.59c2.67-4.61,6.29-8.25,10.87-10.93c4.57-2.67,9.72-4.01,15.43-4.01
			c5.71,0,10.83,1.34,15.37,4.01c4.54,2.67,8.14,6.31,10.82,10.93c2.67,4.61,4.01,9.81,4.01,15.59h-4.28
			c0,5.78-1.23,10.96-3.68,15.54c-2.45,4.58-5.8,8.2-10.05,10.87C1159.44,241.46,1154.64,242.79,1149.3,242.79z M1151.5,232.91
			c3.73,0,7.06-0.9,9.99-2.69c2.93-1.79,5.23-4.25,6.92-7.36c1.68-3.11,2.53-6.6,2.53-10.49c0-3.95-0.84-7.48-2.53-10.6
			c-1.68-3.11-3.99-5.56-6.92-7.36c-2.93-1.79-6.26-2.69-9.99-2.69c-3.66,0-6.97,0.9-9.94,2.69c-2.96,1.79-5.31,4.25-7.03,7.36
			c-1.72,3.11-2.58,6.64-2.58,10.6c0,3.88,0.86,7.38,2.58,10.49c1.72,3.11,4.06,5.56,7.03,7.36
			C1144.52,232.01,1147.84,232.91,1151.5,232.91z M1176.09,242.46c-1.61,0-2.95-0.53-4.01-1.59c-1.06-1.06-1.59-2.4-1.59-4.01v-16.8
			l2.09-11.64l9.11,3.95v24.49c0,1.61-0.53,2.95-1.59,4.01C1179.04,241.93,1177.7,242.46,1176.09,242.46z"/>
		<path class="st0" d="M1270.08,243.45c-5.93,0-11.47-1.12-16.64-3.35c-5.16-2.23-9.66-5.34-13.5-9.33c-3.84-3.99-6.85-8.66-9-14
			c-2.16-5.34-3.24-11.13-3.24-17.35c0-6.15,1.08-11.88,3.24-17.18c2.16-5.31,5.16-9.95,9-13.94c3.84-3.99,8.33-7.12,13.45-9.39
			c5.12-2.27,10.69-3.4,16.69-3.4c5.64,0,10.49,0.73,14.55,2.2c4.06,1.47,8.14,3.88,12.24,7.25c0.58,0.44,1.04,0.9,1.37,1.37
			c0.33,0.48,0.55,0.95,0.66,1.43c0.11,0.48,0.17,1.04,0.17,1.7c0,1.39-0.49,2.56-1.48,3.51c-0.99,0.95-2.2,1.46-3.62,1.54
			c-1.43,0.07-2.76-0.4-4.01-1.43c-2.71-2.34-5.51-4.13-8.4-5.38c-2.89-1.24-6.72-1.87-11.47-1.87c-4.32,0-8.38,0.88-12.19,2.64
			c-3.81,1.76-7.16,4.17-10.05,7.25c-2.89,3.07-5.14,6.64-6.75,10.71c-1.61,4.06-2.42,8.4-2.42,13.01c0,4.69,0.8,9.06,2.42,13.12
			c1.61,4.06,3.86,7.63,6.75,10.71c2.89,3.07,6.24,5.47,10.05,7.19c3.81,1.72,7.87,2.58,12.19,2.58c3.73,0,7.26-0.64,10.6-1.92
			c3.33-1.28,6.53-3.06,9.61-5.33c1.32-0.95,2.62-1.37,3.9-1.26c1.28,0.11,2.36,0.62,3.24,1.54c0.88,0.92,1.32,2.18,1.32,3.79
			c0,0.73-0.13,1.45-0.38,2.14c-0.26,0.7-0.71,1.34-1.37,1.92c-3.88,3.22-8.09,5.62-12.63,7.19
			C1279.82,242.66,1275.06,243.45,1270.08,243.45z M1298.74,229.84l-10.98-2.2v-19.65h-15.15c-1.61,0-2.96-0.47-4.06-1.43
			c-1.1-0.95-1.65-2.16-1.65-3.62c0-1.46,0.55-2.67,1.65-3.62c1.1-0.95,2.45-1.43,4.06-1.43h20.53c1.68,0,3.04,0.53,4.06,1.59
			c1.02,1.06,1.54,2.43,1.54,4.12V229.84z"/>
		<path class="st0" d="M1344.09,242.79c-6.08,0-11.47-1.3-16.2-3.9c-4.72-2.6-8.42-6.18-11.09-10.76
			c-2.67-4.57-4.01-9.83-4.01-15.76c0-6,1.26-11.29,3.79-15.87c2.53-4.57,6.02-8.16,10.49-10.76c4.46-2.6,9.59-3.9,15.37-3.9
			c5.71,0,10.61,1.26,14.71,3.79c4.1,2.53,7.23,6,9.39,10.43c2.16,4.43,3.24,9.54,3.24,15.32c0,1.39-0.48,2.54-1.43,3.46
			c-0.95,0.92-2.16,1.37-3.62,1.37h-44.25v-8.78h43.92l-4.5,3.07c-0.07-3.66-0.81-6.93-2.2-9.83c-1.39-2.89-3.37-5.18-5.93-6.86
			c-2.56-1.68-5.67-2.53-9.33-2.53c-4.17,0-7.74,0.92-10.71,2.74c-2.96,1.83-5.21,4.34-6.75,7.52c-1.54,3.18-2.31,6.79-2.31,10.82
			c0,4.03,0.92,7.61,2.75,10.76c1.83,3.15,4.35,5.64,7.58,7.47c3.22,1.83,6.92,2.75,11.09,2.75c2.27,0,4.59-0.42,6.97-1.26
			c2.38-0.84,4.3-1.81,5.76-2.91c1.1-0.8,2.29-1.23,3.57-1.26c1.28-0.04,2.4,0.35,3.35,1.15c1.24,1.1,1.9,2.31,1.98,3.62
			c0.07,1.32-0.51,2.45-1.76,3.4c-2.49,1.98-5.58,3.59-9.28,4.83C1350.99,242.17,1347.45,242.79,1344.09,242.79z"/>
		<path class="st0" d="M1389.65,242.46c-1.61,0-2.95-0.53-4.01-1.59c-1.06-1.06-1.59-2.4-1.59-4.01v-48.97
			c0-1.68,0.53-3.04,1.59-4.06c1.06-1.02,2.4-1.54,4.01-1.54c1.68,0,3.04,0.51,4.06,1.54c1.02,1.03,1.54,2.38,1.54,4.06v48.97
			c0,1.61-0.51,2.95-1.54,4.01C1392.69,241.93,1391.34,242.46,1389.65,242.46z M1434.78,242.46c-1.61,0-2.95-0.53-4.01-1.59
			c-1.06-1.06-1.59-2.4-1.59-4.01v-27.01c0-4.17-0.77-7.58-2.31-10.21c-1.54-2.64-3.61-4.59-6.2-5.87c-2.6-1.28-5.58-1.92-8.95-1.92
			c-3.07,0-5.86,0.62-8.34,1.87c-2.49,1.25-4.47,2.91-5.93,5c-1.47,2.09-2.2,4.48-2.2,7.19h-6.92c0-4.61,1.12-8.73,3.35-12.35
			c2.23-3.62,5.29-6.5,9.17-8.62c3.88-2.12,8.24-3.18,13.07-3.18c5.05,0,9.57,1.08,13.56,3.24c3.99,2.16,7.14,5.33,9.44,9.5
			s3.46,9.3,3.46,15.37v27.01c0,1.61-0.53,2.95-1.59,4.01C1437.73,241.93,1436.39,242.46,1434.78,242.46z"/>
		<path class="st0" d="M1456.41,193.93c-1.54,0-2.78-0.44-3.73-1.32c-0.95-0.88-1.43-1.98-1.43-3.29c0-1.46,0.47-2.64,1.43-3.51
			c0.95-0.88,2.2-1.32,3.73-1.32h25.36c1.54,0,2.78,0.44,3.73,1.32c0.95,0.88,1.43,2.05,1.43,3.51c0,1.32-0.48,2.42-1.43,3.29
			c-0.95,0.88-2.2,1.32-3.73,1.32H1456.41z M1480.79,242.35c-3.66,0-6.96-0.93-9.88-2.8c-2.93-1.87-5.23-4.41-6.92-7.63
			c-1.68-3.22-2.53-6.84-2.53-10.87v-52.38c0-1.61,0.51-2.93,1.54-3.95c1.02-1.02,2.34-1.54,3.95-1.54c1.61,0,2.93,0.51,3.95,1.54
			c1.02,1.03,1.54,2.34,1.54,3.95v52.38c0,2.93,0.8,5.38,2.42,7.36c1.61,1.98,3.58,2.96,5.93,2.96h3.73c1.32,0,2.43,0.51,3.35,1.54
			c0.92,1.03,1.37,2.34,1.37,3.95c0,1.61-0.6,2.93-1.81,3.95c-1.21,1.03-2.76,1.54-4.67,1.54H1480.79z"/>
		<path class="st0" d="M1531.19,242.79c-6.08,0-11.47-1.3-16.2-3.9c-4.72-2.6-8.42-6.18-11.09-10.76
			c-2.67-4.57-4.01-9.83-4.01-15.76c0-6,1.26-11.29,3.79-15.87c2.53-4.57,6.02-8.16,10.49-10.76c4.46-2.6,9.59-3.9,15.37-3.9
			c5.71,0,10.61,1.26,14.71,3.79c4.1,2.53,7.23,6,9.39,10.43c2.16,4.43,3.24,9.54,3.24,15.32c0,1.39-0.48,2.54-1.43,3.46
			c-0.95,0.92-2.16,1.37-3.62,1.37h-44.25v-8.78h43.92l-4.5,3.07c-0.07-3.66-0.81-6.93-2.2-9.83c-1.39-2.89-3.37-5.18-5.93-6.86
			c-2.56-1.68-5.67-2.53-9.33-2.53c-4.17,0-7.74,0.92-10.71,2.74c-2.96,1.83-5.21,4.34-6.75,7.52c-1.54,3.18-2.31,6.79-2.31,10.82
			c0,4.03,0.92,7.61,2.75,10.76c1.83,3.15,4.35,5.64,7.58,7.47c3.22,1.83,6.92,2.75,11.09,2.75c2.27,0,4.59-0.42,6.97-1.26
			c2.38-0.84,4.3-1.81,5.76-2.91c1.1-0.8,2.29-1.23,3.57-1.26c1.28-0.04,2.4,0.35,3.35,1.15c1.24,1.1,1.9,2.31,1.98,3.62
			c0.07,1.32-0.51,2.45-1.76,3.4c-2.49,1.98-5.58,3.59-9.28,4.83C1538.08,242.17,1534.55,242.79,1531.19,242.79z"/>
	</g>
</g>
</svg>
