<svg xmlns="http://www.w3.org/2000/svg" xmlns:xlink="http://www.w3.org/1999/xlink" width="71.979" height="16.584" viewBox="0 0 71.979 16.584">
  <defs>
    <clipPath id="clip-path">
      <path id="Path_826" data-name="Path 826" d="M23.956,46.012A1.249,1.249,0,0,1,22.7,44.819a1.254,1.254,0,0,1,2.505,0,1.249,1.249,0,0,1-1.253,1.193Zm15.391-6.5a3.553,3.553,0,0,0-1.491-2.327l-.3-.239-.239.3a3.231,3.231,0,0,0-.06,3.7c-.239.119-.537.239-.776.358a5.024,5.024,0,0,1-1.611.239H19.422l-.06.358a6.711,6.711,0,0,0,.537,3.4l.239.418v.06a7.574,7.574,0,0,0,6.8,3.46c5.369,0,9.783-2.327,11.871-7.338a3.341,3.341,0,0,0,3.4-1.611l.179-.3-.3-.179a3.641,3.641,0,0,0-2.744-.3Zm-7.7-.954H29.325v2.327h2.327Zm0-2.923H29.325v2.327h2.327Zm0-2.983H29.325v2.327h2.327Zm2.863,5.906H32.188v2.327h2.327Zm-8.65,0H23.538v2.327h2.327V38.555Zm2.923,0H26.461v2.327h2.327Zm-5.787,0H20.675v2.327H23V38.555Zm5.787-2.923H26.461v2.327h2.327Zm-2.923,0H23.538v2.327h2.327V35.632Z" transform="translate(-19.327 -32.649)" fill="#bababa"/>
    </clipPath>
  </defs>
  <g id="Group_3065" data-name="Group 3065" transform="translate(-19.327 -32.649)">
    <path id="SVGID" d="M23.956,46.012A1.249,1.249,0,0,1,22.7,44.819a1.254,1.254,0,0,1,2.505,0,1.249,1.249,0,0,1-1.253,1.193Zm15.391-6.5a3.553,3.553,0,0,0-1.491-2.327l-.3-.239-.239.3a3.231,3.231,0,0,0-.06,3.7c-.239.119-.537.239-.776.358a5.024,5.024,0,0,1-1.611.239H19.422l-.06.358a6.711,6.711,0,0,0,.537,3.4l.239.418v.06a7.574,7.574,0,0,0,6.8,3.46c5.369,0,9.783-2.327,11.871-7.338a3.341,3.341,0,0,0,3.4-1.611l.179-.3-.3-.179a3.641,3.641,0,0,0-2.744-.3Zm-7.7-.954H29.325v2.327h2.327Zm0-2.923H29.325v2.327h2.327Zm0-2.983H29.325v2.327h2.327Zm2.863,5.906H32.188v2.327h2.327Zm-8.65,0H23.538v2.327h2.327V38.555Zm2.923,0H26.461v2.327h2.327Zm-5.787,0H20.675v2.327H23V38.555Zm5.787-2.923H26.461v2.327h2.327Zm-2.923,0H23.538v2.327h2.327V35.632Z" fill="#bababa"/>
    <g id="Group_3064" data-name="Group 3064" transform="translate(19.327 32.649)">
      <g id="Group_3063" data-name="Group 3063" transform="translate(0 0)" clip-path="url(#clip-path)">
        <g id="Group_3062" data-name="Group 3062" transform="translate(-29.672 -13.482)">
          <path id="SVGID-2" data-name="SVGID" d="M-995.658-428.522h760.481V-338.2H-995.658Z" transform="translate(995.658 428.522)" fill="#bababa"/>
        </g>
      </g>
    </g>
    <path id="docker" d="M968.2,161.454c1.014-.895,2.028-1.73,3.042-2.625.358-.3.716-.6,1.074-.954a2.964,2.964,0,0,0-1.133-.775,2.693,2.693,0,0,0-2.327.239,2.539,2.539,0,0,0-1.312,2.506,2.151,2.151,0,0,0,.358,1.193,1.378,1.378,0,0,1,.3.418m1.193.835a2.938,2.938,0,0,0,1.611.06,3.047,3.047,0,0,1,1.193-.358h.119a.538.538,0,0,1,.358.358.612.612,0,0,1-.239.895l-.119.06a3.851,3.851,0,0,1-4-.06,4.113,4.113,0,0,1-1.432-1.432l-.06-.119a3.877,3.877,0,0,1,.239-4.355,3.811,3.811,0,0,1,1.253-1.133l.179-.119a3.95,3.95,0,0,1,3.818-.06,3.89,3.89,0,0,1,1.611,1.491l.06.119c.3.477-.06.895-.477,1.193l-1.253,1.074c-1.074.835-1.969,1.611-2.863,2.386Zm9.724-6.562h.119a.689.689,0,0,1,.716.716c0,.6-.537.716-1.014.716a2.432,2.432,0,0,0-1.611.776,2.611,2.611,0,0,0-.775,1.909v3.341a.675.675,0,0,1-.656.716h-.119a.643.643,0,0,1-.656-.716v-3.52a3.859,3.859,0,0,1,1.73-3.221,4.216,4.216,0,0,1,2.267-.716Zm-17.061,2.327,1.611-1.611c.179-.119.716-.776.954-.776h.239a.589.589,0,0,1,.537.6v.119c0,.239-.3.477-.418.656-.3.358-.656.656-.954,1.014l-1.67,1.67,2.148,2.148.6.6.239.239c.06.119.119.179.119.3v.179a.634.634,0,0,1-.6.537h-.119c-.239,0-.477-.239-.656-.418-.3-.3-.656-.6-.954-.954l-1.074-1.014v1.67a.675.675,0,0,1-.656.716h-.119a.643.643,0,0,1-.656-.716v-9.187a.626.626,0,0,1,.656-.656h.119a.626.626,0,0,1,.656.656Zm-4.414-.895a1.9,1.9,0,0,0-.835-.119,2.509,2.509,0,0,0-2.446,1.611,2.422,2.422,0,0,0-.239,1.133,2.584,2.584,0,0,0,1.67,2.505,3.21,3.21,0,0,0,1.313.239,3.961,3.961,0,0,0,1.193-.358h.3a.588.588,0,0,1,.537.6v.119c0,.835-1.551,1.014-2.088,1.074a3.954,3.954,0,0,1-4.176-2.923,2.958,2.958,0,0,1-.119-1.014v-.3a3.713,3.713,0,0,1,2.028-3.4,3.755,3.755,0,0,1,1.969-.537h.3a3.513,3.513,0,0,1,2.028.6l.06.06.06.06a.847.847,0,0,1,.119.358v.119c0,.358-.238.537-.6.6h-.06a6.592,6.592,0,0,1-1.014-.418Zm-12.528,2.565a2.709,2.709,0,0,0,1.372,2.327,2.771,2.771,0,0,0,1.372.358,2.709,2.709,0,0,0,2.327-1.372,2.771,2.771,0,0,0,.358-1.372,2.7,2.7,0,0,0-1.253-2.267,2.5,2.5,0,0,0-1.432-.418,2.593,2.593,0,0,0-2.446,1.611,1.715,1.715,0,0,0-.3,1.133Zm2.506-4.057h.179a3.917,3.917,0,0,1,3.579,2.148,3.645,3.645,0,0,1,.477,1.79v.3a3.714,3.714,0,0,1-2.028,3.4,3.754,3.754,0,0,1-1.969.537h-.3a3.714,3.714,0,0,1-3.4-2.028,3.754,3.754,0,0,1-.537-1.969v-.3a3.714,3.714,0,0,1,2.028-3.4,4.557,4.557,0,0,1,1.969-.477Zm-11.573,4.057a2.556,2.556,0,0,0,1.491,2.386,2.773,2.773,0,0,0,1.253.3,2.616,2.616,0,0,0,2.386-1.372,2.772,2.772,0,0,0,.358-1.372,2.548,2.548,0,0,0-1.193-2.207,2.8,2.8,0,0,0-1.551-.477,2.593,2.593,0,0,0-2.446,1.611,2.918,2.918,0,0,0-.3,1.133Zm5.488-3.042v-2.923a.675.675,0,0,1,.656-.716h.119a.643.643,0,0,1,.656.716V159.9a3.714,3.714,0,0,1-2.028,3.4,3.754,3.754,0,0,1-1.969.537h-.3a3.714,3.714,0,0,1-3.4-2.028,3.755,3.755,0,0,1-.537-1.969v-.3a3.714,3.714,0,0,1,2.028-3.4,3.754,3.754,0,0,1,1.969-.537h.3a4.117,4.117,0,0,1,2.506,1.074Z" transform="translate(-888.642 -116.874)" fill="#bababa"/>
  </g>
</svg>
