<svg xmlns="http://www.w3.org/2000/svg" width="36.864" height="32.829" viewBox="0 0 36.864 32.829">
  <g id="Group_3121" data-name="Group 3121" transform="translate(0 -273.075)">
    <path id="Path_884" data-name="Path 884" d="M36.864,289.493c0-2.442-3.058-4.756-7.747-6.192,1.082-4.779.6-8.581-1.518-9.8a3.3,3.3,0,0,0-1.683-.421v1.676a1.741,1.741,0,0,1,.857.2c1.022.586,1.465,2.818,1.12,5.688-.083.706-.218,1.45-.383,2.209a36.412,36.412,0,0,0-4.771-.819,36.643,36.643,0,0,0-3.126-3.757c2.45-2.277,4.749-3.524,6.312-3.524v-1.676c-2.066,0-4.771,1.473-7.507,4.028-2.735-2.54-5.44-4-7.507-4v1.676c1.555,0,3.862,1.24,6.312,3.5a35.487,35.487,0,0,0-3.1,3.75,35.092,35.092,0,0,0-4.779.827c-.173-.751-.3-1.48-.391-2.179-.353-2.87.083-5.1,1.1-5.7a1.673,1.673,0,0,1,.864-.2v-1.676a3.35,3.35,0,0,0-1.7.421c-2.111,1.217-2.585,5.012-1.5,9.776C3.043,284.752,0,287.059,0,289.493s3.058,4.756,7.747,6.192c-1.082,4.779-.6,8.581,1.518,9.8a3.3,3.3,0,0,0,1.691.421c2.066,0,4.771-1.473,7.507-4.028,2.735,2.54,5.44,4,7.507,4a3.35,3.35,0,0,0,1.7-.421c2.111-1.217,2.585-5.012,1.5-9.776,4.659-1.435,7.7-3.75,7.7-6.184Zm-9.783-5.012c-.278.969-.624,1.969-1.014,2.968-.308-.6-.631-1.2-.984-1.8s-.714-1.187-1.082-1.758c1.067.158,2.1.353,3.081.594Zm-3.441,8c-.586,1.014-1.187,1.976-1.811,2.87-1.12.1-2.254.15-3.4.15s-2.269-.053-3.381-.143q-.935-1.341-1.818-2.855-.857-1.476-1.563-2.991c.466-1.007.992-2.014,1.555-3,.586-1.014,1.187-1.976,1.811-2.87,1.12-.1,2.254-.15,3.4-.15s2.269.053,3.381.143q.936,1.341,1.818,2.855c.571.984,1.09,1.984,1.563,2.991-.473,1.007-.992,2.014-1.555,3Zm2.427-.977c.406,1.007.751,2.014,1.037,2.991-.984.24-2.021.443-3.1.6.368-.579.736-1.172,1.082-1.781s.669-1.21.977-1.811Zm-7.619,8.018a30.989,30.989,0,0,1-2.089-2.4c.676.03,1.368.053,2.066.053s1.405-.015,2.089-.053A29.337,29.337,0,0,1,18.447,299.525Zm-5.59-4.426c-1.067-.158-2.1-.353-3.081-.594.278-.969.624-1.969,1.014-2.968.308.6.631,1.2.984,1.8S12.488,294.528,12.857,295.1Zm5.553-15.637a30.984,30.984,0,0,1,2.089,2.4c-.676-.03-1.368-.053-2.066-.053s-1.405.015-2.089.053A29.339,29.339,0,0,1,18.41,279.462Zm-5.56,4.426c-.368.579-.736,1.172-1.082,1.781s-.669,1.2-.977,1.8c-.406-1.007-.751-2.014-1.037-2.991.984-.233,2.021-.436,3.1-.594Zm-6.8,9.408c-2.66-1.135-4.381-2.622-4.381-3.8s1.721-2.675,4.381-3.8c.646-.278,1.353-.526,2.081-.759a36.088,36.088,0,0,0,1.691,4.576,35.58,35.58,0,0,0-1.668,4.554c-.744-.233-1.45-.488-2.1-.766Zm4.043,10.738c-1.022-.586-1.465-2.818-1.12-5.688.083-.706.218-1.45.383-2.209a36.417,36.417,0,0,0,4.771.819,36.663,36.663,0,0,0,3.126,3.757c-2.45,2.277-4.749,3.524-6.312,3.524a1.793,1.793,0,0,1-.849-.2Zm17.823-5.726c.353,2.87-.083,5.1-1.1,5.7a1.672,1.672,0,0,1-.864.2c-1.555,0-3.862-1.24-6.312-3.5a35.487,35.487,0,0,0,3.1-3.75,35.082,35.082,0,0,0,4.779-.827A21.038,21.038,0,0,1,27.915,298.307Zm2.893-5.012c-.646.278-1.353.526-2.081.759a36.087,36.087,0,0,0-1.691-4.576,35.578,35.578,0,0,0,1.668-4.554c.744.233,1.45.488,2.111.766,2.66,1.135,4.381,2.622,4.381,3.8s-1.728,2.675-4.388,3.8Z" fill="#bababa"/>
    <circle id="Ellipse_199" data-name="Ellipse 199" cx="3.434" cy="3.434" r="3.434" transform="translate(14.991 286.059)" fill="#bababa"/>
  </g>
</svg>
