<?xml version="1.0" encoding="utf-8"?>
<!-- Generator: Adobe Illustrator 27.5.0, SVG Export Plug-In . SVG Version: 6.00 Build 0)  -->
<svg version="1.1" id="Layer_1" xmlns="http://www.w3.org/2000/svg" xmlns:xlink="http://www.w3.org/1999/xlink" x="0px" y="0px"
	 viewBox="0 0 615.13 201.13" style="enable-background:new 0 0 615.13 201.13;" xml:space="preserve">
<style type="text/css">
	.st0{fill:#000000;}
	.st1{fill:#EB7726;}
</style>
<path class="st0" d="M63.62,164.07c16.17,0,27.19-6.61,27.19-19.31c0-10.67-7.12-15.26-16.41-19.82l-30.13-14.25
	c-19.85-9.9-36.51-21.85-36.51-48.8c0-33.54,26.96-55.16,61.5-55.16c20.82,0,39.45,9.15,48.77,18.05V66.2
	c-13.97-14.23-32.09-25.16-50.48-25.16c-13,0-22.3,6.1-22.3,17.54c0,7.87,5.14,12.46,13.23,16.52l27.69,12.97
	c27.44,12.46,41.65,25.67,41.65,52.6c0,36.1-28.65,57.7-64.92,57.7c-23.28,0-43.61-8.9-55.37-18.31v-40.91
	C23.2,152.12,42.8,164.07,63.62,164.07"/>
<polygon class="st0" points="154.49,9.78 267.19,9.78 267.19,43.35 192.71,43.35 192.71,83.76 261.56,83.76 261.56,117.3 
	192.71,117.3 192.71,161.79 267.68,161.79 267.68,195.33 154.49,195.33 "/>
<polygon class="st0" points="304.02,9.78 445.16,9.78 428.92,43.35 342.23,43.35 342.23,85.53 408.38,85.53 392.04,119.07 
	342.23,119.07 342.23,195.33 304.02,195.33 "/>
<polygon class="st0" points="493.45,2 399.53,195.33 440.72,195.33 512.75,42.05 "/>
<polygon class="st1" points="472.97,161.77 513.02,161.77 541.46,101.22 521.95,60.94 "/>
<polygon class="st0" points="550.76,120.3 513.83,195.33 586.81,195.33 "/>
<g>
	<path class="st0" d="M594.26,187.64v7.66h-1.97v-7.66h-2.78v-1.68h7.56v1.68H594.26z"/>
	<path class="st0" d="M606.22,185.56l2.78,9.72h-2.01l-1.39-4.97l-2.69,5.23l-2.73-5.23l-1.37,4.97h-2.01l2.77-9.72l3.35,6.34
		L606.22,185.56z"/>
</g>
</svg>
