<svg id="Group_3114" data-name="Group 3114" xmlns="http://www.w3.org/2000/svg" width="38.234" height="34.665" viewBox="0 0 38.234 34.665">
  <path id="Path_885" data-name="Path 885" d="M88.832,32.232a.846.846,0,0,1,.846.825v9.706a.846.846,0,0,1-.825.846H80.935a.846.846,0,0,1-.846-.825V33.078a.846.846,0,0,1,.825-.846h7.919Zm0,.376h-7.9a.47.47,0,0,0-.47.453v9.7a.471.471,0,0,0,.454.47h7.914a.471.471,0,0,0,.47-.454v-9.7A.47.47,0,0,0,88.832,32.608Zm-6.769,8.65v.564H81.5v-.564Zm6.3,0v.564H82.346v-.564Zm-6.3-2.444v.564H81.5v-.564Zm6.3,0v.564H82.346v-.564Zm-6.3-2.351v.564H81.5v-.564Zm6.3,0v.564H82.346v-.564Zm0-2.163v.564H81.5V34.3Z" transform="translate(-68.127 -27.418)" fill="#bababa" stroke="#bababa" stroke-width="0.2"/>
  <path id="Path_886" data-name="Path 886" d="M88.832,121.621v.006a.846.846,0,0,1,.846.819v9.706a.846.846,0,0,1-.825.846H80.935a.846.846,0,0,1-.846-.82v-9.711a.846.846,0,0,1,.825-.846h7.919Zm0,.376h-7.9a.47.47,0,0,0-.47.453v9.7a.471.471,0,0,0,.454.47h7.914a.471.471,0,0,0,.47-.451v-9.7a.47.47,0,0,0-.453-.469h-.017Zm-6.769,8.652v.564H81.5v-.564Zm6.3,0v.556H82.346v-.556Zm-6.3-2.449v.564H81.5v-.564Zm6.3,0v.556H82.346v-.556Zm-6.3-2.354v.564H81.5v-.564Zm6.3,0v.555H82.346v-.555Zm0-2.167v.564H81.5v-.564Z" transform="translate(-68.127 -103.457)" fill="#bababa" stroke="#bababa" stroke-width="0.2"/>
  <path id="Path_887" data-name="Path 887" d="M153.879,70.32v.47h2.82V83.564h-2.82v.47h3.291V70.32h-3.291Z" transform="translate(-130.896 -59.817)" fill="#bababa" stroke="#bababa" stroke-width="0.2"/>
  <path id="Path_888" data-name="Path 888" d="M2.887,2.21A4.3,4.3,0,0,1,5.285.457L5.411.416h0L5.537.378,5.726.326,5.851.294,5.913.279,6.037.25,6.1.237,6.221.212h0L6.341.19h0L6.461.169h0L6.578.15h0L6.694.133h0L6.807.117h0L6.918.1h0L7.026.092h0L7.132.081h0L7.285.068h0l.146-.01h0L7.568.049h0l.15-.006h0l.137,0H8.23l.095,0,.042,0V2.3c-2-.19-2.888.413-3.28,1.056l-.035.06a1.994,1.994,0,0,0-.126.271L4.9,3.748l-.01.029-.018.058h0l-.016.057h0l-.014.056-.006.028-.011.055-.005.027-.009.052h0l-.008.051h0L4.8,4.21h0l-.007.07h0l0,.066h0l0,.051v.164l0,.042,0,.049v.829l0,1.693L4.783,8.4,4.777,9.422l-.008.867-.007.683-.009.665-.009.567-.012.6-.007.313-.008.3-.01.329,0,.1v.386l0,.119h0l0,.115h0l0,.07h0l0,.07h0l-.006.071h0l-.01.106h0l-.008.071h0l-.009.071h0L4.642,15l-.006.036-.013.071-.007.036L4.6,15.21h0l-.017.071h0l-.018.071c-.006.023-.013.047-.02.07l-.022.07h0l-.024.07h0l-.026.069A2.929,2.929,0,0,1,2.05,17.352a2.958,2.958,0,0,1,2.4,1.658l.027.069q.04.1.071.21l.02.07c.013.047.024.094.034.142l.015.071.007.036.013.071h0l.011.071h0l.01.071h0l.009.071h0l.007.071h0l.006.071h0l.005.071h0l.006.106h0l0,.07h0l0,.118h0l0,.078v.381l.01.331.009.349.008.374.008.4.008.486.011.8.008.68,0,.383.008.978.009,1.451.006,1.57h0V30.05l0,.02,0,.03,0,.027,0,.049h0v.13l0,.051,0,.065h0l0,.046h0l.009.072h0l.007.05h0l.009.052h0l.01.053.006.027.013.055.007.028.016.056h0l.018.057.01.029L4.922,31l.023.059.025.059c.313.7,1.141,1.463,3.28,1.288l.117-.01v2.257l-.06,0-.111,0-.091,0h-.19l-.088,0-.095,0-.123,0h0l-.087,0h0l-.09-.005h0l-.093-.006h0l-.1-.008h0l-.1-.009h0l-.1-.01h0l-.1-.012h0l-.107-.013h0l-.11-.014-.056-.008-.113-.017-.057-.009-.115-.02-.058-.011L6.2,34.487l-.059-.012-.119-.026h0l-.12-.028-.121-.03-.122-.032a4.395,4.395,0,0,1-2.9-2.089,4.623,4.623,0,0,1,1.8-3.46q.076-.053.153-.1l.059-.037q-.109.067-.214.142a4.62,4.62,0,0,0-1.8,3.453,3.968,3.968,0,0,1-.412-1.748l-.013-.622L2.32,29.14,2.3,28.257l-.03-1.126-.027-.976L2.2,24.878l-.042-1.369L2.09,21.354l-.017-.5A2.12,2.12,0,0,0,1.1,18.907l-.056-.03-.028-.014-.056-.026L.91,18.813l-.055-.022L.8,18.772l-.054-.017-.053-.015L.65,18.728l-.042-.01-.041-.009L.528,18.7l-.058-.01h0l-.038-.006-.037,0-.053-.006H0V16.029c.124,0,.234,0,.342,0L.4,16.02l.037,0,.038-.006L.528,16h0l.04-.008.041-.009.042-.01.042-.011.053-.016h0L.8,15.928h0l.055-.019a2.02,2.02,0,0,0,1.218-2.063l.064-1.913.05-1.563.027-.887L2.254,8.06l.027-.99.02-.754.025-1.009L2.34,4.68l.011-.5a3.883,3.883,0,0,1,.516-1.937l.021-.034Zm26.98.055V.008l.061,0,.084,0h.305l.124,0h0L30.6.009h0l.085,0h0l.088.005h0l.139.009h0l.1.008h0l.1.009h0l.1.01h0l.1.012h0l.107.013h0l.109.015h0l.111.016h0l.113.018.057.01.116.021h0l.117.023h0l.118.024h0l.119.027h0l.12.029.182.047.122.035a4.229,4.229,0,0,1,2.854,2.244,4.059,4.059,0,0,1,.322,1.556l.013.623.017.755.012.5.019.756.027,1,.02.729.038,1.278.042,1.369.071,2.154.017.5a2.107,2.107,0,0,0,.992,1.96l.056.029.028.014.055.025h0l.055.023.027.011.055.02.027.009.054.017.026.008.079.02h0l.051.012.05.01h0l.049.008.038.006.037,0,.053.006h0c.092,0,.189.007.291.005h.052v2.646c-.124,0-.234,0-.342,0l-.035,0-.036,0-.056.008h0l-.058.01h0l-.04.008-.041.009-.042.01-.042.011-.026.008h0l-.054.016-.027.009-.055.019-.027.011-.055.023a2.047,2.047,0,0,0-1.135,2.03L36.1,22.733l-.05,1.563-.027.887-.041,1.423-.027.99-.02.754-.025,1.009-.014.627-.011.5a4.135,4.135,0,0,1-.244,1.364l-.019.051v0a4.314,4.314,0,0,1-3.182,2.456l-.123.03-.061.014-.122.027-.06.013-.12.024-.06.011-.118.021-.058.01-.115.018h0l-.113.016h0l-.111.014h0l-.109.013h0l-.106.011h0l-.1.01h0l-.149.012h0l-.1.007h0l-.137.008h0l-.128.006h0l-.157,0h-.37l-.071,0-.061,0h-.021V32.365c2.09.2,2.969-.471,3.332-1.146l.031-.06c.01-.02.02-.04.029-.06l.026-.06.024-.06.021-.059h0l.019-.058.009-.029.016-.057h0l.014-.056h0l.012-.055h0l.011-.054h0l.009-.052h0l.007-.051h0l.006-.049h0l.007-.07h0l0-.044h0l0-.073v-.164l0-.029,0-.042,0-.02V28.776l0-1.153.006-1.189.007-1,.009-1.023.01-.918.007-.534.007-.43.009-.493.006-.312.007-.3.007-.28.01-.323v-.383l0-.079,0-.119h0l0-.08,0-.071h0l.005-.071h0l.006-.072h0l.007-.072h0l.008-.072h0l.01-.072.005-.036.012-.072h0l.013-.072h0l.014-.072h0l.016-.071q.03-.125.07-.248l.024-.07a2.5,2.5,0,0,1,.118-.276l.035-.068a3.1,3.1,0,0,1,2.293-1.433,2.847,2.847,0,0,1-2.5-1.936l-.02-.07c-.013-.047-.024-.094-.034-.142l-.015-.071-.007-.036-.013-.071h0l-.011-.071h0l-.01-.071h0l-.009-.071h0l-.007-.071h0l-.006-.071h0l-.005-.071h0l-.006-.106h0l0-.07h0l0-.118h0l0-.078v-.381l-.007-.221-.008-.28-.009-.361-.008-.384-.007-.4-.009-.566-.01-.813-.008-.76-.007-.88-.009-1.566-.006-1.7h0a4.1,4.1,0,0,0,.373-.233,4.1,4.1,0,0,0,1.352-1.685l.021-.047a4.11,4.11,0,0,1-1.375,1.733q-.15.105-.309.2l-.064.036V4.616l0-.02,0-.03,0-.027,0-.049h0V4.36l0-.052,0-.043h0L33.437,4.2h0l-.009-.072h0l-.007-.05h0l-.009-.052h0l-.01-.053L33.4,3.945l-.013-.055-.007-.028-.016-.056h0l-.018-.057-.01-.029-.021-.058c-.007-.02-.015-.039-.023-.059l-.025-.059c-.313-.7-1.141-1.462-3.28-1.288Z" fill="#bababa"/>
  <path id="Path_889" data-name="Path 889" d="M20.391,5.39l.069.047.07.045V4.653l0-.02,0-.03,0-.027,0-.049h0V4.4l0-.051,0-.043h0l0-.045h0l.005-.047h0l.006-.049h0l.008-.051h0l.009-.052h0L20.568,4l.006-.027.013-.056h0l.015-.057.008-.029.018-.058.01-.029.021-.059a1.994,1.994,0,0,1,.126-.271l.035-.06c.393-.643,1.284-1.246,3.28-1.056V.045l-.042,0-.072,0h-.315l-.128,0h0l-.117,0h0L23.3.049l-.138.008h0l-.146.01h0l-.1.009h0l-.157.015h0L22.653.1h0l-.111.014h0l-.113.015h0L22.313.15h0L22.2.169h0L22.077.19h0l-.121.023h0l-.122.025L21.772.25l-.124.028-.062.015-.125.032-.189.052-.126.038h0L21.02.457a4.3,4.3,0,0,0-2.4,1.753A4.523,4.523,0,0,0,20.391,5.39ZM24.1,34.658V32.4c-2.184.208-3.045-.533-3.378-1.237L20.7,31.1q-.019-.045-.036-.09l-.021-.059-.01-.029-.018-.058h0L20.6,30.81h0l-.014-.056h0l-.012-.055h0l-.011-.054h0l-.009-.052h0l-.008-.051h0l-.006-.049h0l-.007-.07h0l0-.066h0l0-.051v-.164l0-.029,0-.042,0-.021V28.657q-.118.073-.232.153a4.623,4.623,0,0,0-1.8,3.46,4.395,4.395,0,0,0,2.9,2.089l.122.032.121.03.12.028h0l.119.026h0L22,34.5l.059.011.116.021.058.01.114.018.056.008.111.015.055.007.107.013h0l.1.012h0l.1.01h0l.1.009h0l.1.008h0l.093.006h0l.09.005h0l.128.006h0l.081,0h0l.095,0,.088,0h.281l.073,0ZM51.3,2.588a4.343,4.343,0,0,0-3.07-2.3l-.12-.03h0L47.988.226,47.929.212,47.811.187,47.753.176,47.637.154h0l-.114-.02h0L47.409.115h0L47.3.1h0L47.189.083h0L47.082.07h0l-.1-.012h0l-.1-.011h0l-.1-.009h0L46.631.026h0L46.494.017h0L46.364.01h0l-.122,0h0l-.076,0h0l-.092,0h-.294L45.7,0l-.056,0-.046,0V2.265c2.184-.208,3.045.533,3.378,1.237l.027.06q.019.045.036.09l.021.059.01.029.018.058h0l.016.057h0l.014.056h0l.012.055h0l.011.054h0l.009.052h0l.008.051h0l.006.049h0l.007.07h0l0,.066h0l0,.052v.164l0,.042,0,.05V5.875a4.107,4.107,0,0,0,.373-.233A4.485,4.485,0,0,0,51.3,2.588ZM49.643,29.062a4.021,4.021,0,0,0-.467-.286v1.238l0,.02,0,.03,0,.027,0,.049h0v.13l0,.073h0l0,.044h0l-.007.07h0l-.006.049h0l-.007.051h0l-.009.052h0l-.011.054h0l-.012.055h0l-.014.056h0l-.016.057-.009.029-.019.058h0l-.021.059-.024.06L49,31.1c-.009.02-.019.04-.029.06l-.031.06c-.364.675-1.242,1.345-3.332,1.146v2.257l.033,0,.1,0h0l.118,0h.194l.091,0,.1,0,.121,0h0l.129-.007h0l.091-.006h0l.142-.011h0l.1-.009h0l.1-.01h0l.1-.011h0l.106-.013h0l.108-.014h0l.11-.016h0l.112-.017.057-.009.115-.02h0l.116-.022.059-.012.118-.025.059-.013.119-.028A4.353,4.353,0,0,0,51.357,31.9,4.418,4.418,0,0,0,49.643,29.062Z" transform="translate(-15.735)" fill="#bababa"/>
</svg>
