<svg xmlns="http://www.w3.org/2000/svg" width="25.617" height="29.244" viewBox="0 0 25.617 29.244">
  <g id="Group_3067" data-name="Group 3067" transform="translate(-882.427 -752.312)">
    <path id="Path_828" data-name="Path 828" d="M1181.23,1089.662a2.25,2.25,0,0,0,1.226.363c.077,0,.154,0,.228-.012a2.263,2.263,0,1,0-2.491-2.251h0A2.262,2.262,0,0,0,1181.23,1089.662Z" transform="translate(-286.943 -321.075)" fill="#bababa"/>
    <path id="Path_829" data-name="Path 829" d="M905.267,1163.955a3.73,3.73,0,0,1-3.692-3.233c-.777-.028-1.6-.028-2.37,0a3.726,3.726,0,0,1-4.249,3.191,13.875,13.875,0,0,1-2.2,2.664,12.666,12.666,0,0,1-4.452,2.761l-.3.106-.281-.145a4.554,4.554,0,0,1-2.413-5.347,3.7,3.7,0,0,1-.962-.242q-.154.322-.31.642a14.729,14.729,0,0,0-1.479,3.968c-.253,1.524-.353,4.3,1.815,5.806,2.96,2.051,6.1.492,9.733-1.313a28.218,28.218,0,0,1,5.633-2.313c.733-.181,1.484-.289,2.21-.394a10.23,10.23,0,0,0,3.7-1,4.389,4.389,0,0,0,2.149-3.04h0a4.545,4.545,0,0,0-.408-2.782A3.7,3.7,0,0,1,905.267,1163.955Z" transform="translate(0 -393.543)" fill="#bababa"/>
    <path id="Path_830" data-name="Path 830" d="M910.868,1088.352a2.247,2.247,0,0,0,.3,1.12,2.259,2.259,0,0,0,1.965,1.143c.052,0,.1,0,.155-.006a2.262,2.262,0,1,0-2.418-2.257Z" transform="translate(-27.407 -321.644)" fill="#bababa"/>
    <path id="Path_831" data-name="Path 831" d="M1310.522,945.741a3.734,3.734,0,0,1,1.122,1.813q1.279-.047,2.56,0a3.729,3.729,0,0,1,1.025-1.723l-2.365-4.824Z" transform="translate(-412.533 -181.836)" fill="#bababa"/>
    <path id="Path_832" data-name="Path 832" d="M1448.891,1086.5a2.252,2.252,0,0,0-.312,1.852,2.263,2.263,0,0,0,4.448-.587h0a2.265,2.265,0,0,0-2.051-2.252c-.07-.007-.14-.01-.212-.01A2.26,2.26,0,0,0,1448.891,1086.5Z" transform="translate(-545.497 -321.079)" fill="#bababa"/>
    <path id="Path_833" data-name="Path 833" d="M1166.649,763.163l3.611-7.3,3.6,7.347a3.679,3.679,0,0,1,.462-.143l3.646-10.752h-15.435l3.634,10.721A3.739,3.739,0,0,1,1166.649,763.163Z" transform="translate(-269.924)" fill="#bababa"/>
  </g>
</svg>
