<svg xmlns="http://www.w3.org/2000/svg" width="33.324" height="34.349" viewBox="0 0 33.324 34.349">
  <g id="Group_3124" data-name="Group 3124" transform="translate(-44.975 44.967)">
    <path id="Path_896" data-name="Path 896" d="M78.212-24.4c-.115-.349-.636-1.455-2.522-1.069a10.132,10.132,0,0,1-1.728.228c3.308-5.622,5.4-13.256,3.34-15.893C73.368-46.157,66.93-45.037,64.9-44.375a15.777,15.777,0,0,0-2.453-.222,8.056,8.056,0,0,0-4.32,1.063c-1.877-.635-6.871-1.977-10.189.366-2.129,1.5-3.117,4.113-2.938,7.759.056,1.128,2.182,14.416,6.578,15.883a2.948,2.948,0,0,0,2.915-.63,3.41,3.41,0,0,0,1.775,1.013,6.228,6.228,0,0,0,4.046-.241c.008.213.013.415.018.591l.026.808a14.281,14.281,0,0,0,.541,4.052l.073.216c.672,2.061,1.93,3.1,3.748,3.1a5.939,5.939,0,0,0,1.229-.139c3.324-.714,5.167-2.372,5.352-9.04l.019,0,.04-.343c.007-.058.013-.117.021-.175l.284.026a9.2,9.2,0,0,0,3.879-.673C76.315-21.318,78.795-22.627,78.212-24.4ZM75.12-21.88a8.145,8.145,0,0,1-3.092.588,4.647,4.647,0,0,1-1.382-.176l-.739,5.86c-.408,2.375-1.457,3.443-3.873,3.962a5.448,5.448,0,0,1-1.128.129A3.5,3.5,0,0,1,61.561-14.1c-.365-.916-.492-3.925-.465-6.977a4.453,4.453,0,0,1-3.067,1.152,6.347,6.347,0,0,1-1.531-.2c-.153-.038-1.491-.4-1.473-1.254.016-.783,1.133-1.013,1.554-1.1,1.476-.3,1.572-.424,2.031-1.008.094-.12.209-.261.336-.413,0-.019,0-.037-.006-.056a4.26,4.26,0,0,1-1.879-.518c-.38.405-1.471,1.585-2.655,3a2.508,2.508,0,0,1-1.916,1.086,1.927,1.927,0,0,1-.608-.1c-3.615-1.217-5.848-13.487-5.917-15.021-.164-3.292.687-5.626,2.53-6.93,3.309-2.347,8.654-.534,9.789-.107a7.1,7.1,0,0,1,4.124-1.139,10.558,10.558,0,0,1,2.4.314c.789-.416,7.743-2.289,11.713,2.794,1.744,2.228-.335,10.19-4.12,15.95.272.2,1.1.543,3.461.057.79-.168,1.263-.02,1.412.426C77.562-23.284,75.991-22.287,75.12-21.88Z" transform="translate(0 0)" fill="#adadad"/>
    <path id="Path_897" data-name="Path 897" d="M69.2-36.01c-1.131-.138-2.424-.1-2.936.629-1,1.43.955,4.936,1.789,6.432.214.385.375.678.44.835a4.758,4.758,0,0,0,.253.516,6.419,6.419,0,0,0,.282-3.657,12.037,12.037,0,0,1-.127-1.8,12.358,12.358,0,0,1,.172-1.6A10.178,10.178,0,0,0,69.2-36.01Zm-.908.829a1.019,1.019,0,0,1-.727.553.759.759,0,0,1-.1.007.816.816,0,0,1-.76-.5.219.219,0,0,1,.05-.168,1.145,1.145,0,0,1,.71-.309,1.4,1.4,0,0,1,.673.05l0-.013.02.021a.263.263,0,0,1,.172.193l.034.239Z" transform="translate(2.311 0.978)" fill="#bababa"/>
    <path id="Path_898" data-name="Path 898" d="M68.741-22.664c-.072-1.775.887-2.139,1.426-2.294-.069-.1-.162-.214-.254-.332a6.663,6.663,0,0,1-1.057-1.7c-.056-.138-.2-.393-.391-.733-1-1.795-3.082-5.528-1.736-7.453.619-.884,1.84-1.239,3.63-1.056-.576-1.662-3.14-6.618-9.027-6.714a5.708,5.708,0,0,0-4.378,1.637c-1.765,1.78-2.23,4.591-2.352,6.087a7.468,7.468,0,0,1,2.576-.875,2.511,2.511,0,0,1,3.029,2.046c.868,3.967.072,5.727-.507,7.012-.108.236-.209.461-.292.685l-.077.206a11.325,11.325,0,0,0-.406,1.241,1.491,1.491,0,0,1,.968.119,1.952,1.952,0,0,1,1.057,1.269,2.115,2.115,0,0,1,.044.243.521.521,0,0,1,.023.127l0,.02c0,.016.008.029.008.044-.112,3.99.046,7.6.365,8.4a2.589,2.589,0,0,0,3.379,1.87c2.051-.441,2.781-1.18,3.122-3.164Z" transform="translate(1.059 0.222)" fill="#bababa"/>
    <path id="Path_899" data-name="Path 899" d="M58.449-27.254l.077-.2c.091-.245.2-.49.317-.748.554-1.227,1.243-2.754.444-6.411a1.458,1.458,0,0,0-1.126-1.259,5.252,5.252,0,0,0-3.582,1.047c0,.079.01.178.017.292a20.563,20.563,0,0,1-.107,4.151A4.045,4.045,0,0,0,55.547-27,3.42,3.42,0,0,0,58-25.91,12.82,12.82,0,0,1,58.449-27.254Zm-1.385-7.8a.3.3,0,0,1,.125-.2,1.2,1.2,0,0,1,.827-.118c.427.062.869.266.828.569a.631.631,0,0,1-.265.373.958.958,0,0,1-.574.2.75.75,0,0,1-.112-.008,1.07,1.07,0,0,1-.684-.426.764.764,0,0,1-.139-.274l-.02-.013Z" transform="translate(1.042 0.994)" fill="#bababa"/>
    <path id="Path_900" data-name="Path 900" d="M46.734-35.785C46.849-33.237,49.355-22.519,52-21.63c.174.059.708.239,1.479-.688,1.1-1.314,2.128-2.438,2.591-2.935a4.627,4.627,0,0,1-.364-.315,5,5,0,0,1-1.316-4.187,19.72,19.72,0,0,0,.1-3.96c-.013-.221-.023-.387-.022-.488v0c-.008-.337-.058-5.025,2.671-7.78.024-.026.052-.047.078-.071-1.669-.545-5.825-1.619-8.357.176C47.3-40.781,46.587-38.73,46.734-35.785Z" transform="translate(0.191 0.23)" fill="#bababa"/>
    <path id="Path_901" data-name="Path 901" d="M64.293-43a11.39,11.39,0,0,1,6.085,7.2.628.628,0,0,1-.023.213,9.224,9.224,0,0,1-.145,1.871,11.73,11.73,0,0,0-.16,1.481,11.151,11.151,0,0,0,.12,1.658,6.786,6.786,0,0,1-.628,4.651l.055.071c.042.052.073.1.113.15,3.813-5.985,5.133-12.933,3.934-14.467C70.813-43.793,66.4-43.434,64.293-43Z" transform="translate(2.125 0.187)" fill="#bababa"/>
    <path id="Path_902" data-name="Path 902" d="M72.161-24.841a5.3,5.3,0,0,0,1.36-.88l-.016,0c-1.978.408-3.374.351-4.157-.165a1.429,1.429,0,0,1-.138-.1c-.08.031-.15.05-.2.064-.45.125-.872.244-.807,1.407C68.483-24.215,70.863-24.24,72.161-24.841Z" transform="translate(2.555 2.088)" fill="#bababa"/>
    <path id="Path_903" data-name="Path 903" d="M54.988-23.436a2.125,2.125,0,0,0,.642.276,3.8,3.8,0,0,0,4.293-1.373.72.72,0,0,0,.061-.6,1.022,1.022,0,0,0-.5-.646c-.261-.107-.4-.165-.719.185l-.052-.047h0l.051.046c-.214.239-.369.435-.5.6-.586.745-.855,1-2.593,1.355A3.1,3.1,0,0,0,54.988-23.436Z" transform="translate(1.101 2.102)" fill="#bababa"/>
  </g>
</svg>
