<svg xmlns="http://www.w3.org/2000/svg" width="57.259" height="26.585" viewBox="0 0 57.259 26.585">
  <path id="Path_825" data-name="Path 825" d="M9.573,6.366a1.581,1.581,0,0,0-1.137-.477,1.561,1.561,0,0,0-1.129.477H7.3a1.651,1.651,0,0,0-.005,2.306L7.3,8.68a1.563,1.563,0,0,0,1.129.472A1.588,1.588,0,0,0,9.568,8.68l0-.008a1.615,1.615,0,0,0,.46-1.151,1.637,1.637,0,0,0-.466-1.154h.008ZM8.436,28.7a1.6,1.6,0,0,0,1.137-.475l0-.008a1.614,1.614,0,0,0,.46-1.148,1.649,1.649,0,0,0-.46-1.156h0a1.572,1.572,0,0,0-1.137-.479,1.55,1.55,0,0,0-1.129.479H7.3a1.646,1.646,0,0,0-.467,1.156A1.624,1.624,0,0,0,7.3,28.214l.008.008a1.579,1.579,0,0,0,1.129.475Zm8.734-4.942A1.585,1.585,0,0,0,18.146,23l.03-.057a1.632,1.632,0,0,0,.127-1.182,1.588,1.588,0,0,0-.747-.992l-.022-.015a1.6,1.6,0,0,0-2.169.614A1.65,1.65,0,0,0,15.95,23.6h0a1.56,1.56,0,0,0,1.218.153Zm-7.095-8.129a2.289,2.289,0,0,0-3.285,0,2.369,2.369,0,0,0-.677,1.669,2.4,2.4,0,0,0,.677,1.676,2.294,2.294,0,0,0,3.28,0,2.4,2.4,0,0,0,.678-1.677,2.366,2.366,0,0,0-.678-1.669Zm-.92-2.78a4.383,4.383,0,0,1,2.411,1.267h.005a4.382,4.382,0,0,1,.293.331l1.6-.942a3.528,3.528,0,0,1-.052-2,3.489,3.489,0,0,1,1.611-2.133l.027-.017a3.389,3.389,0,0,1,2.6-.339,3.45,3.45,0,0,1,2.1,1.636v0a3.57,3.57,0,0,1,.346,2.667,3.483,3.483,0,0,1-1.611,2.136l-.219.131h-.022a3.419,3.419,0,0,1-4.059-.823l-1.6.939a4.52,4.52,0,0,1,.285,1.591,4.6,4.6,0,0,1-.285,1.6l1.6.937a3.434,3.434,0,0,1,1.675-1.046,3.361,3.361,0,0,1,2.625.354l.053.026v0a3.508,3.508,0,0,1,1.558,2.111,3.563,3.563,0,0,1-.346,2.664L19.714,24h0a3.486,3.486,0,0,1-2.067,1.591,3.428,3.428,0,0,1-2.625-.352v-.007a3.545,3.545,0,0,1-1.559-4.134l-1.6-.94c-.092.114-.19.222-.293.326l-.005.005a4.363,4.363,0,0,1-2.411,1.26v1.881a3.417,3.417,0,0,1,1.727.955l0,.005a3.549,3.549,0,0,1,0,4.964l0,.01a3.42,3.42,0,0,1-4.887-.006h0v-.01a3.546,3.546,0,0,1,0-4.965v-.005h0a3.363,3.363,0,0,1,1.725-.955V21.739a4.308,4.308,0,0,1-2.4-1.26L5.3,20.474A4.542,4.542,0,0,1,5.3,14.109h.007a4.371,4.371,0,0,1,2.409-1.267V10.967a3.484,3.484,0,0,1-1.725-.957h0v-.005a3.552,3.552,0,0,1,0-4.97l.008,0a3.4,3.4,0,0,1,4.883,0v0h0a3.556,3.556,0,0,1,0,4.969l0,.005a3.478,3.478,0,0,1-1.727.957v1.874Zm8.99-1.25-.013-.02a1.61,1.61,0,0,0-.963-.74A1.58,1.58,0,0,0,15.949,11h0a1.614,1.614,0,0,0-.75.992,1.658,1.658,0,0,0,.162,1.24l.007.01a1.583,1.583,0,0,0,.968.745,1.547,1.547,0,0,0,1.216-.16l.02-.01a1.628,1.628,0,0,0,.727-.98,1.661,1.661,0,0,0-.156-1.24m7.1.551h1.786v5.548l2.576-2.9h2.147l-3.109,3.359,3.112,4.251H29.714l-2.685-3.8v3.8H25.243V12.141m8.578,6.489A2.269,2.269,0,0,0,36.1,20.949a2.116,2.116,0,0,0,1.99-1.219,2.666,2.666,0,0,0,.287-1.074,2.426,2.426,0,0,0-.206-1.071,2.194,2.194,0,0,0-2.085-1.343,2.273,2.273,0,0,0-2.263,2.371v.018Zm6.325,3.775H38.359v-1.1a2.772,2.772,0,0,1-2.522,1.331,3.8,3.8,0,0,1-3.8-4.05,3.822,3.822,0,0,1,3.8-4.036A2.783,2.783,0,0,1,38.359,15.9V14.79h1.787v7.616m2.023-6.214h-.92v-1.4h.92v-.429c0-2.263,1.691-2.4,2.973-2.414v1.4c-.451,0-1.186,0-1.186,1.071v.373h1.186v1.4H43.956v6.215H42.169V16.191m4.192-4.05h1.785v5.548l2.577-2.9h2.147L49.761,18.15l3.115,4.256H50.831l-2.685-3.8v3.8H46.361V12.141m8.579,6.489a2.268,2.268,0,0,0,2.277,2.318,2.128,2.128,0,0,0,1.994-1.219,2.716,2.716,0,0,0,.287-1.074,2.422,2.422,0,0,0-.206-1.071,2.187,2.187,0,0,0-2.084-1.343,2.273,2.273,0,0,0-2.263,2.371v.013Zm6.319,3.775H59.472v-1.1a2.775,2.775,0,0,1-2.522,1.331,3.8,3.8,0,0,1-3.8-4.05,3.82,3.82,0,0,1,3.8-4.036A2.784,2.784,0,0,1,59.472,15.9V14.79h1.786v7.616" transform="translate(-4 -4)" fill="#bababa"/>
</svg>
