<svg xmlns="http://www.w3.org/2000/svg" viewBox="0 0 264.78 50.35"><defs><style>.cls-1{fill:#00ade6;}.cls-1,.cls-2,.cls-3,.cls-4,.cls-5{fill-rule:evenodd;}.cls-2{fill:#feb525;}.cls-3{fill:#1fd9a3;}.cls-4{fill:#9a258f;}.cls-5{fill:#ed174c;}.cls-6{fill:#000;}</style></defs><title>Asset 2</title><g id="Layer_2" data-name="Layer 2"><g id="Skytracks.io_logo_rgb_Flat"><g id="Icon"><path class="cls-1" d="M27.91,13h.18a4,4,0,0,1,4,4V38a4,4,0,0,1-4,4h-.18a4,4,0,0,1-4-4V17A4,4,0,0,1,27.91,13Z"/><path class="cls-1" d="M28,0a5.07,5.07,0,0,1,5,5.11A5,5,0,1,1,23,5.11,5.07,5.07,0,0,1,28,0Z"/><path class="cls-2" d="M4,25.13h.22a4,4,0,0,1,4,4V38a4,4,0,0,1-4,4H4a4,4,0,0,1-4-4V29.13A4,4,0,0,1,4,25.13Z"/><path class="cls-3" d="M15.94,18.59h.22a4,4,0,0,1,4,4V38a4,4,0,0,1-4,4h-.22a4,4,0,0,1-4-4V22.59A4,4,0,0,1,15.94,18.59Z"/><path class="cls-3" d="M16.05,5.59a5.11,5.11,0,1,1-5,5.11A5.06,5.06,0,0,1,16.05,5.59Z"/><path class="cls-4" d="M39.84,22.31h.22a4,4,0,0,1,4,4V38a4,4,0,0,1-4,4h-.22a4,4,0,0,1-4-4V26.31A4,4,0,0,1,39.84,22.31Z"/><path class="cls-4" d="M40,9.31a5.11,5.11,0,1,1-5,5.11A5.07,5.07,0,0,1,40,9.31Z"/><path class="cls-5" d="M51.78,28.84H52a4,4,0,0,1,4,4V38a4,4,0,0,1-4,4h-.22a4,4,0,0,1-4-4V32.84A4,4,0,0,1,51.78,28.84Z"/></g><path class="cls-6" d="M67.14,34.42l3.91-1.5c1.23,3.39,4.32,5.33,8.32,5.33,3.83,0,7-1.76,7-5.15,0-3-2-4.27-4.66-5.06L76,26.5c-4.32-1.19-7.13-3.35-7.13-8.19,0-5.41,4.53-8.75,10.34-8.75,5,0,9.28,1.93,10.82,6.2l-3.74,1.5c-1.32-2.69-3.78-4.05-7.17-4.05-3,0-6,1.45-6,4.75,0,2.38,1.72,3.87,5,4.8l5.76,1.58c3.7,1,6.73,3.21,6.73,8.41C90.63,38.25,86,42,79.19,42,73.47,42,68.63,39.48,67.14,34.42Z"/><path class="cls-6" d="M95.56,10.08h4V29.62l9.33-10.34h4.8l-7.79,8.27,8.32,14h-4.49l-6.56-11.17-3.61,3.83V41.5h-4Z"/><path class="cls-6" d="M116.72,50V46.65a14.5,14.5,0,0,0,2.64.31,3.46,3.46,0,0,0,3.35-2.46L124,41l-8.32-21.7H120l6,16.77h.09l5.77-16.77h4l-9.41,25.66c-1.41,3.78-4.1,5.41-7.13,5.41A13.27,13.27,0,0,1,116.72,50Z"/><path class="cls-6" d="M147.57,13.82h-9.82V10.13h23.9v3.69h-9.77V41.5h-4.31Z"/><path class="cls-6" d="M163.41,19.28h3.87v4.18h.09a8.79,8.79,0,0,1,7.74-4.57,9.68,9.68,0,0,1,1.67.13v3.69a10.76,10.76,0,0,0-2-.13c-4.14,0-7.3,2.47-7.35,7V41.5h-4Z"/><path class="cls-6" d="M178.85,35.43c0-4.66,4.23-6.78,8.23-6.78h6.2V25.93c0-2.91-1.93-4-5-4-2.51,0-4.84.88-4.84,3v.75h-3.61v-.62c0-4.66,4.4-6.29,8.54-6.29,4.66,0,8.85,1.58,8.85,6.73V36.31a43.43,43.43,0,0,0,.35,5.19h-3.92c-.09-.57-.18-2.28-.22-2.77h-.09c-1.89,2.73-4.22,3.26-7,3.26C182.06,42,178.85,39.57,178.85,35.43Zm14.43-2.07V31.6H187.7c-2.65,0-4.93.75-4.93,3.61,0,2.42,2,3.61,4.66,3.61C191.79,38.82,193.28,36.49,193.28,33.36Z"/><path class="cls-6" d="M202.13,33.06V28.3c0-6,4.13-9.46,9.55-9.46,5,0,9.1,2.86,9.1,8.05v.53h-3.87v-.66c0-2.64-2-4.57-5.19-4.57s-5.46,2.06-5.46,5.67v5.28c0,3.35,1.94,5.55,5.55,5.55,3.17,0,5.1-1.89,5.1-4.58v-.48h3.87V34c0,5.15-4,8.06-9,8.06C206.31,42.08,202.13,38.86,202.13,33.06Z"/><path class="cls-6" d="M225.31,10.08h4V29.62l9.33-10.34h4.79l-7.78,8.27,8.31,14h-4.49l-6.55-11.17-3.61,3.83V41.5h-4Z"/><path class="cls-6" d="M246.3,38.2l2.77-2.15a8.4,8.4,0,0,0,6.52,2.77c2.5,0,5.06-1.14,5.06-3.56,0-2.2-1.41-2.82-4.45-3.39l-2.68-.53c-3.79-.7-6.21-2.47-6.21-5.72,0-4.14,3.48-6.87,8.28-6.87,3.56,0,6.29.88,8.09,3.08l-2.81,2a7.22,7.22,0,0,0-5.42-2c-2.5,0-4.22,1.24-4.22,3.22s1.85,2.46,4.62,3l3.3.71c3.48.7,5.63,2.59,5.63,5.89,0,4.93-4.75,7.35-9.11,7.35C251.89,42,248.46,41,246.3,38.2Z"/></g></g></svg>