<svg version="1.1" id="Layer_1" xmlns="http://www.w3.org/2000/svg" xmlns:xlink="http://www.w3.org/1999/xlink" x="0px" y="0px"
	 width="100%" viewBox="0 0 658 581" enable-background="new 0 0 658 581" xml:space="preserve">
<path fill="#FFFFFF" opacity="1.000000" stroke="none" 
	d="
M518.000000,582.000000 
	C345.759003,582.000000 173.517975,582.000000 1.000000,582.000000 
	C1.000000,486.976868 1.000000,391.953430 1.468651,296.462463 
	C35.278790,296.030731 68.620277,296.066559 101.970505,296.564575 
	C101.994347,343.676788 101.998871,390.326874 102.068855,436.976807 
	C102.071289,438.598328 102.726837,440.218903 103.531113,441.916443 
	C126.655037,441.944855 149.325821,441.896698 172.460938,441.917664 
	C190.538910,441.996979 208.152618,442.031952 225.766251,442.011841 
	C253.845139,441.979736 281.923981,441.910980 310.467896,441.919250 
	C346.961731,441.933685 382.990540,441.886536 419.482086,441.905762 
	C452.574829,441.977448 485.204834,441.982758 517.912781,442.451721 
	C517.993835,489.276917 517.996887,535.638428 518.000000,582.000000 
z"/>
<path fill="#FFFFFF" opacity="1.000000" stroke="none" 
	d="
M659.000000,149.000000 
	C659.000000,246.020889 659.000000,343.041779 658.690552,440.522583 
	C657.974609,441.036285 657.568115,441.090149 656.674988,441.093201 
	C610.485413,441.013367 564.782349,440.984344 519.060852,440.944824 
	C519.042358,440.934326 519.069763,440.901733 519.044556,440.441833 
	C518.957397,421.322357 518.895508,402.662781 518.904175,383.539154 
	C518.927551,369.718170 518.880249,356.361267 518.903137,342.540161 
	C518.926758,331.718842 518.880188,321.361725 518.903076,310.541229 
	C518.972534,305.159210 518.972534,300.240570 518.972534,295.165680 
	C514.578674,295.165680 510.788940,295.165680 506.535156,295.096680 
	C487.380859,295.074371 468.690613,295.121002 449.536072,295.098785 
	C441.046539,295.076355 433.021271,295.122803 424.531982,295.101532 
	C412.377960,295.077576 400.687897,295.121338 388.533600,295.098419 
	C381.378876,295.076416 374.688446,295.121094 367.534088,295.098236 
	C361.045593,295.075989 355.021027,295.121216 348.532440,295.098724 
	C340.377502,295.075623 332.686523,295.120239 324.531586,295.097382 
	C314.044403,295.074646 304.021240,295.119415 293.537537,295.097443 
	C288.716278,294.982086 284.355530,294.933441 279.978333,294.427887 
	C279.989502,245.677704 280.017090,197.384415 280.507385,149.040131 
	C301.970428,148.934219 322.970703,148.879333 344.434631,148.909302 
	C438.635529,148.986237 532.372742,148.981613 626.109985,148.965637 
	C636.431396,148.963882 646.752747,148.897202 657.389160,148.938217 
	C658.136169,149.010529 658.568054,149.005264 659.000000,149.000000 
z"/>
<path fill="#FFFFFF" opacity="1.000000" stroke="none" 
	d="
M1.000000,148.000000 
	C1.000000,99.056168 1.000000,50.112339 1.000000,1.000000 
	C79.020813,1.000000 157.041748,1.000000 235.516205,1.468446 
	C235.971191,7.586906 235.977264,13.236923 235.973419,18.886934 
	C235.944061,61.924297 235.912766,104.961662 235.918365,148.004730 
	C235.954666,148.010437 235.946304,147.937439 235.481415,147.965897 
	C208.007812,148.048050 180.999100,148.101730 153.527008,148.086487 
	C127.052261,148.063141 101.040863,148.108734 74.562141,148.086456 
	C49.729877,148.012390 25.364939,148.006195 1.000000,148.000000 
z"/>
<path fill="#E21156" opacity="1.000000" stroke="none" 
	d="
M0.999998,290.000000 
	C1.000000,286.969391 1.000000,283.938812 1.356774,280.418579 
	C2.479005,279.612640 3.292510,279.379303 4.002917,278.967957 
	C22.664957,268.161957 41.295692,257.301819 59.974815,246.525528 
	C82.536797,233.509186 105.157738,220.595032 127.717743,207.575272 
	C157.171646,190.576935 186.615829,173.561310 215.992432,156.430054 
	C219.555145,154.352417 222.672943,151.511871 226.444351,149.016357 
	C229.909943,148.651016 232.928116,148.294220 235.946304,147.937439 
	C235.946304,147.937439 235.954666,148.010437 236.229553,147.784790 
	C236.681183,146.039429 236.857925,144.519714 237.419266,142.999512 
	C238.777969,142.846436 239.902405,142.957474 240.703110,142.500839 
	C249.637756,137.405457 258.522522,132.222595 267.420532,127.062950 
	C287.368317,115.495949 307.291626,103.886513 327.270355,92.373230 
	C348.114563,80.361176 369.040283,68.490578 389.879303,56.469532 
	C416.893402,40.886349 443.883087,25.260181 470.811279,9.529306 
	C474.421112,7.420510 477.610657,4.592247 481.462708,2.064504 
	C489.619659,2.052618 497.308746,2.073373 504.957031,2.438788 
	C504.084686,3.778183 503.446503,5.106240 502.392578,5.717649 
	C486.597504,14.880412 470.741180,23.937571 454.912292,33.042152 
	C436.493652,43.636345 418.073578,54.228184 399.680054,64.865875 
	C379.707733,76.416664 359.777771,88.040680 339.806335,99.593010 
	C318.541412,111.893555 297.161438,123.998245 276.004944,136.481979 
	C264.651062,143.181519 253.813004,150.970703 239.485062,148.126434 
	C239.355194,148.100647 239.191055,148.247589 238.494095,148.559479 
	C240.893158,148.938385 242.802231,149.239914 245.399948,149.650208 
	C244.280457,150.831879 243.918625,151.435226 243.386002,151.743103 
	C234.187134,157.060364 224.969849,162.345764 215.751465,167.629227 
	C194.866699,179.599182 173.949692,191.513260 153.100693,203.545166 
	C130.674500,216.487244 108.319992,229.553482 85.917694,242.537048 
	C62.940224,255.853928 39.984516,269.209442 16.921589,282.376984 
	C11.824984,285.286835 6.318011,287.477936 0.999998,290.000000 
z"/>
<path fill="#E1125C" opacity="1.000000" stroke="none" 
	d="
M0.999998,290.416656 
	C6.318011,287.477936 11.824984,285.286835 16.921589,282.376984 
	C39.984516,269.209442 62.940224,255.853928 85.917694,242.537048 
	C108.319992,229.553482 130.674500,216.487244 153.100693,203.545166 
	C173.949692,191.513260 194.866699,179.599182 215.751465,167.629227 
	C224.969849,162.345764 234.187134,157.060364 243.386002,151.743103 
	C243.918625,151.435226 244.280457,150.831879 245.399948,149.650208 
	C242.802231,149.239914 240.893158,148.938385 238.494095,148.559479 
	C239.191055,148.247589 239.355194,148.100647 239.485062,148.126434 
	C253.813004,150.970703 264.651062,143.181519 276.004944,136.481979 
	C297.161438,123.998245 318.541412,111.893555 339.806335,99.593010 
	C359.777771,88.040680 379.707733,76.416664 399.680054,64.865875 
	C418.073578,54.228184 436.493652,43.636345 454.912292,33.042152 
	C470.741180,23.937571 486.597504,14.880412 502.392578,5.717649 
	C503.446503,5.106240 504.084686,3.778183 505.424255,2.403219 
	C511.619781,2.047761 517.307373,2.072533 522.953979,2.438451 
	C518.871948,5.548801 514.994202,8.600863 510.764282,11.042727 
	C474.845123,31.778172 438.837311,52.359913 402.904755,73.072197 
	C366.687531,93.948570 330.523071,114.916550 294.342896,135.857101 
	C288.253326,139.381638 282.200958,142.970428 274.997223,147.194626 
	C277.319824,147.676376 278.217804,147.862640 279.092712,148.290222 
	C279.069672,148.531540 279.010986,149.012817 278.565979,149.008118 
	C273.426910,148.358597 269.904663,150.384308 265.876770,152.811157 
	C246.111740,164.719864 225.972687,176.007751 205.967407,187.517822 
	C177.183212,204.078842 148.391373,220.626572 119.619644,237.209198 
	C91.568092,253.376740 63.501221,269.518463 35.535583,285.833527 
	C31.102055,288.420044 27.166647,291.860413 22.533398,294.939178 
	C15.043900,294.981567 8.021951,294.990784 1.000000,295.000000 
	C1.000000,293.611115 1.000000,292.222198 0.999998,290.416656 
z"/>
<path fill="#940FF0" opacity="1.000000" stroke="none" 
	d="
M657.161560,441.143982 
	C657.568115,441.090149 657.974609,441.036285 658.690552,440.991211 
	C659.000000,441.444489 659.000000,441.889008 658.671448,442.930481 
	C658.189087,451.019775 658.035217,458.512085 657.532410,466.045166 
	C654.062378,467.639252 650.851562,469.036560 647.835327,470.771973 
	C631.733765,480.036285 615.687866,489.397461 599.609131,498.701508 
	C579.222961,510.498077 558.863586,522.342102 538.406067,534.013794 
	C532.122742,537.598572 525.555359,540.685242 519.077393,543.532959 
	C519.064026,529.045044 519.091431,515.024109 519.479309,500.996307 
	C526.063171,497.580536 532.341431,494.267792 538.500183,490.745880 
	C563.544861,476.424164 588.576111,462.078400 613.537598,447.612518 
	C615.956177,446.210907 617.859253,443.919739 620.469238,442.008484 
	C629.419861,441.967346 637.904053,442.036102 646.385498,441.914795 
	C649.980408,441.863373 653.569702,441.412994 657.161560,441.143982 
z"/>
<path fill="#DA177E" opacity="1.000000" stroke="none" 
	d="
M637.000000,0.999999 
	C638.714417,1.000000 640.428772,1.000000 642.568359,1.370942 
	C641.531433,3.379512 640.366211,5.526554 638.562378,6.577725 
	C614.461914,20.622169 590.281067,34.528889 566.102112,48.438381 
	C541.202515,62.762459 516.260864,77.013550 491.378235,91.367104 
	C464.053497,107.129417 436.737610,122.908119 409.514343,138.844513 
	C405.088715,141.435272 401.162689,144.879547 396.536987,147.955688 
	C388.381653,147.964386 380.695007,147.946716 373.047241,147.583984 
	C374.002472,146.356033 374.784668,145.239807 375.854889,144.624634 
	C399.019318,131.309647 422.257263,118.122238 445.395691,104.762436 
	C474.133881,88.169403 502.761841,71.385452 531.498779,54.790276 
	C558.803467,39.022213 586.208252,23.427446 613.500061,7.637365 
	C615.924805,6.234482 617.840881,3.952489 620.445618,2.043490 
	C624.265320,1.672126 627.632690,1.336062 631.000000,0.999999 
	C632.066711,1.000000 633.133362,1.000000 634.716614,1.254471 
	C635.822083,1.339293 636.411072,1.169646 637.000000,0.999999 
z"/>
<path fill="#D91884" opacity="1.000000" stroke="none" 
	d="
M397.005707,147.929306 
	C401.162689,144.879547 405.088715,141.435272 409.514343,138.844513 
	C436.737610,122.908119 464.053497,107.129417 491.378235,91.367104 
	C516.260864,77.013550 541.202515,62.762459 566.102112,48.438381 
	C590.281067,34.528889 614.461914,20.622169 638.562378,6.577725 
	C640.366211,5.526554 641.531433,3.379512 642.996765,1.370942 
	C644.388916,1.000000 645.777771,1.000000 647.853271,1.311382 
	C651.570251,1.856992 654.600586,2.091221 657.937134,2.349116 
	C657.937134,4.802622 657.937134,6.897382 657.583008,9.033517 
	C637.924683,20.098562 618.594788,31.077660 599.323242,42.158203 
	C579.325562,53.656212 559.396362,65.273315 539.414978,76.799652 
	C520.870483,87.497086 502.283630,98.121109 483.738983,108.818275 
	C463.327454,120.592323 442.928253,132.388092 422.577606,144.266739 
	C421.158112,145.095291 420.185242,146.689056 418.536163,147.953705 
	C411.046997,147.963394 404.026337,147.946350 397.005707,147.929306 
z"/>
<path fill="#D61A94" opacity="1.000000" stroke="none" 
	d="
M659.000000,26.000008 
	C659.000000,28.700962 659.000000,31.401924 658.711548,34.502953 
	C658.229675,34.926674 658.036133,34.950333 657.501404,35.027130 
	C648.230530,40.153870 639.284302,45.198563 630.374268,50.306568 
	C605.350586,64.652222 580.319092,78.984413 555.333496,93.396156 
	C528.053833,109.131081 500.796783,124.905800 473.601440,140.785736 
	C470.180237,142.783463 467.194061,145.526215 463.537903,147.949432 
	C454.715332,147.957718 446.361206,147.940369 438.060791,147.587128 
	C447.973511,141.213562 457.737549,135.013718 467.712036,129.173264 
	C486.320557,118.277275 505.057068,107.600037 523.729797,96.813522 
	C543.696228,85.279686 563.643982,73.713509 583.612000,62.182419 
	C602.286438,51.398346 620.932007,40.563030 639.684998,29.917118 
	C645.973389,26.347282 652.553345,23.291006 659.000000,20.000000 
	C659.000000,21.388889 659.000000,22.777779 658.781860,24.634430 
	C658.709167,25.401466 658.854553,25.700741 659.000000,26.000008 
z"/>
<path fill="#D41CA1" opacity="1.000000" stroke="none" 
	d="
M659.000000,51.000000 
	C659.000000,55.356899 659.000000,59.713802 658.611450,64.538475 
	C657.111877,65.244713 655.852112,65.222946 654.911743,65.760201 
	C637.656616,75.618744 620.429443,85.526413 603.217163,95.459755 
	C577.832458,110.109512 552.424988,124.720673 527.129395,139.522949 
	C523.143860,141.855164 519.696472,145.107193 515.532288,147.962982 
	C504.711792,147.968506 494.359283,147.944946 484.044556,147.578674 
	C485.351929,146.010513 486.450806,144.504517 487.921509,143.609543 
	C493.445648,140.247925 499.090942,137.085403 504.691071,133.848724 
	C526.949585,120.984100 549.208679,108.120445 571.466675,95.254837 
	C591.856689,83.468933 612.217163,71.631508 632.648621,59.917892 
	C640.973145,55.145340 649.450684,50.639664 657.890564,46.401649 
	C658.281677,48.193813 658.640869,49.596905 659.000000,51.000000 
z"/>
<path fill="#E50F49" opacity="1.000000" stroke="none" 
	d="
M235.481415,147.965897 
	C232.928116,148.294220 229.909943,148.651016 225.981613,149.006378 
	C221.047073,149.012054 217.022675,149.019180 212.542831,149.016373 
	C208.528900,149.383804 204.380508,148.707825 201.510712,150.314957 
	C186.483536,158.730377 171.846863,167.838852 156.949219,176.490784 
	C134.443329,189.561249 111.811150,202.414032 89.274857,215.432404 
	C64.589172,229.692429 39.986462,244.096481 15.261076,258.287018 
	C10.719192,260.893738 5.764270,262.780762 1.000000,265.000000 
	C1.000000,260.643097 1.000000,256.286194 1.365967,251.425934 
	C3.267174,250.321716 4.905603,249.901489 6.321934,249.092438 
	C23.308695,239.389160 40.287300,229.671036 57.219906,219.873611 
	C94.956177,198.038895 132.670380,176.166000 170.370377,154.268723 
	C172.326630,153.132477 174.066605,151.623886 175.907272,150.288666 
	C175.713898,149.867767 175.520508,149.446884 175.327133,149.026001 
	C171.884735,149.026001 168.442352,149.026001 164.541992,149.017365 
	C160.723984,148.995453 157.363953,148.982193 154.001495,148.765533 
	C153.999100,148.562134 153.990372,148.155411 153.990372,148.155411 
	C180.999100,148.101730 208.007812,148.048050 235.481415,147.965897 
z"/>
<path fill="#E90B30" opacity="1.000000" stroke="none" 
	d="
M1.000002,222.000000 
	C1.000000,214.312424 1.000000,206.624832 1.358387,198.432617 
	C2.779559,197.468719 3.900944,197.110825 4.896556,196.535339 
	C29.538639,182.291550 54.184711,168.054367 78.766029,153.706284 
	C80.747978,152.549408 82.268875,150.602646 84.472351,149.014084 
	C98.805450,149.005219 112.670212,149.005219 126.534981,149.005219 
	C126.664268,149.496063 126.793556,149.986908 126.922852,150.477753 
	C125.385040,151.598236 123.934639,152.870316 122.295670,153.815338 
	C108.486580,161.777573 94.619301,169.638947 80.815346,177.610046 
	C59.968792,189.647919 39.213863,201.845779 18.297134,213.759964 
	C12.762577,216.912445 6.777961,219.274826 1.000002,222.000000 
z"/>
<path fill="#D8198B" opacity="1.000000" stroke="none" 
	d="
M659.000000,19.550022 
	C652.553345,23.291006 645.973389,26.347282 639.684998,29.917118 
	C620.932007,40.563030 602.286438,51.398346 583.612000,62.182419 
	C563.643982,73.713509 543.696228,85.279686 523.729797,96.813522 
	C505.057068,107.600037 486.320557,118.277275 467.712036,129.173264 
	C457.737549,135.013718 447.973511,141.213562 437.592346,147.615295 
	C431.048370,147.961899 425.026520,147.944443 419.004700,147.926987 
	C420.185242,146.689056 421.158112,145.095291 422.577606,144.266739 
	C442.928253,132.388092 463.327454,120.592323 483.738983,108.818275 
	C502.283630,98.121109 520.870483,87.497086 539.414978,76.799652 
	C559.396362,65.273315 579.325562,53.656212 599.323242,42.158203 
	C618.594788,31.077660 637.924683,20.098562 657.635742,9.334610 
	C658.361694,10.062886 658.680847,10.531445 659.000000,11.000002 
	C659.000000,13.700013 659.000000,16.400026 659.000000,19.550022 
z"/>
<path fill="#E70D3A" opacity="1.000000" stroke="none" 
	d="
M1.000002,222.464661 
	C6.777961,219.274826 12.762577,216.912445 18.297134,213.759964 
	C39.213863,201.845779 59.968792,189.647919 80.815346,177.610046 
	C94.619301,169.638947 108.486580,161.777573 122.295670,153.815338 
	C123.934639,152.870316 125.385040,151.598236 126.922852,150.477753 
	C126.793556,149.986908 126.664268,149.496063 126.534981,149.005219 
	C112.670212,149.005219 98.805450,149.005219 84.036087,149.004257 
	C80.430809,148.720306 77.730141,148.437317 75.029465,148.154312 
	C101.040863,148.108734 127.052261,148.063141 153.527008,148.086487 
	C153.990372,148.155411 153.999100,148.562134 153.632767,148.780914 
	C144.704514,153.978378 136.151733,158.972900 127.578773,163.932510 
	C109.193275,174.568863 90.798851,185.189774 72.405304,195.812180 
	C52.144024,207.513229 31.900005,219.244461 11.596574,230.871918 
	C8.199574,232.817337 4.538865,234.302292 1.000000,236.000000 
	C1.000000,231.643097 1.000000,227.286194 1.000002,222.464661 
z"/>
<path fill="#D21DA8" opacity="1.000000" stroke="none" 
	d="
M516.000305,147.933945 
	C519.696472,145.107193 523.143860,141.855164 527.129395,139.522949 
	C552.424988,124.720673 577.832458,110.109512 603.217163,95.459755 
	C620.429443,85.526413 637.656616,75.618744 654.911743,65.760201 
	C655.852112,65.222946 657.111877,65.244713 658.611450,65.003128 
	C659.000000,69.356903 659.000000,73.713799 658.623474,78.542519 
	C656.555542,79.652626 654.736938,80.070427 653.191284,80.961525 
	C616.863098,101.905830 580.553833,122.883179 544.299927,143.955627 
	C542.900757,144.768890 542.085693,146.586945 540.530762,147.966553 
	C532.042114,147.975525 524.021179,147.954742 516.000305,147.933945 
z"/>
<path fill="#D11EAD" opacity="1.000000" stroke="none" 
	d="
M540.998474,147.936798 
	C542.085693,146.586945 542.900757,144.768890 544.299927,143.955627 
	C580.553833,122.883179 616.863098,101.905830 653.191284,80.961525 
	C654.736938,80.070427 656.555542,79.652626 658.623474,79.007172 
	C659.000000,84.354927 659.000000,89.709862 658.607788,95.537155 
	C656.189331,96.654366 653.969788,96.961731 652.165771,97.994797 
	C625.957825,113.002975 599.787231,128.076843 573.678955,143.257477 
	C571.832520,144.331085 570.542969,146.362289 568.527222,147.978729 
	C559.039490,147.985092 550.018982,147.960938 540.998474,147.936798 
z"/>
<path fill="#E31051" opacity="1.000000" stroke="none" 
	d="
M212.998276,149.026306 
	C217.022675,149.019180 221.047073,149.012054 225.534210,149.014923 
	C222.672943,151.511871 219.555145,154.352417 215.992432,156.430054 
	C186.615829,173.561310 157.171646,190.576935 127.717743,207.575272 
	C105.157738,220.595032 82.536797,233.509186 59.974815,246.525528 
	C41.295692,257.301819 22.664957,268.161957 4.002917,278.967957 
	C3.292510,279.379303 2.479005,279.612640 1.356774,279.964478 
	C1.000000,277.629425 1.000000,275.258881 1.372077,272.439453 
	C2.238036,271.925507 2.814910,272.004578 3.213994,271.774811 
	C38.168346,251.650879 73.115654,231.514679 108.048645,211.353683 
	C139.673187,193.102081 171.304688,174.862244 202.863937,156.498306 
	C206.470276,154.399841 209.630951,151.535522 212.998276,149.026306 
z"/>
<path fill="#E60E41" opacity="1.000000" stroke="none" 
	d="
M1.000000,236.449982 
	C4.538865,234.302292 8.199574,232.817337 11.596574,230.871918 
	C31.900005,219.244461 52.144024,207.513229 72.405304,195.812180 
	C90.798851,185.189774 109.193275,174.568863 127.578773,163.932510 
	C136.151733,158.972900 144.704514,153.978378 153.635162,148.984314 
	C157.363953,148.982193 160.723984,148.995453 164.503418,149.363800 
	C163.053879,151.256180 161.338257,153.047333 159.288422,154.284958 
	C152.051788,158.654114 144.711807,162.852921 137.390778,167.081284 
	C119.014572,177.694702 100.626389,188.287384 82.244690,198.891296 
	C63.577076,209.660141 44.944355,220.490067 26.229967,231.176987 
	C17.903912,235.931641 9.414995,240.401093 1.000000,245.000000 
	C1.000000,242.299988 1.000000,239.599976 1.000000,236.449982 
z"/>
<path fill="#E3104E" opacity="1.000000" stroke="none" 
	d="
M212.542831,149.016373 
	C209.630951,151.535522 206.470276,154.399841 202.863937,156.498306 
	C171.304688,174.862244 139.673187,193.102081 108.048645,211.353683 
	C73.115654,231.514679 38.168346,251.650879 3.213994,271.774811 
	C2.814910,272.004578 2.238036,271.925507 1.372077,271.995300 
	C1.000000,269.958344 1.000000,267.916656 1.000000,265.437500 
	C5.764270,262.780762 10.719192,260.893738 15.261076,258.287018 
	C39.986462,244.096481 64.589172,229.692429 89.274857,215.432404 
	C111.811150,202.414032 134.443329,189.561249 156.949219,176.490784 
	C171.846863,167.838852 186.483536,158.730377 201.510712,150.314957 
	C204.380508,148.707825 208.528900,149.383804 212.542831,149.016373 
z"/>
<path fill="#EC0920" opacity="1.000000" stroke="none" 
	d="
M0.999998,186.000000 
	C1.000000,173.979111 1.000000,161.958206 1.468655,149.467041 
	C22.481167,148.996765 43.025024,148.996765 63.568882,148.996765 
	C63.626308,149.498154 63.683735,149.999542 63.741161,150.500931 
	C62.850731,151.154388 62.010567,151.893784 61.062328,152.448410 
	C47.065002,160.635391 33.113682,168.904068 19.016048,176.915085 
	C13.175746,180.233841 7.015006,182.988693 0.999998,186.000000 
z"/>
<path fill="#CF1FB7" opacity="1.000000" stroke="none" 
	d="
M568.994446,147.948227 
	C570.542969,146.362289 571.832520,144.331085 573.678955,143.257477 
	C599.787231,128.076843 625.957825,113.002975 652.165771,97.994797 
	C653.969788,96.961731 656.189331,96.654366 658.607788,96.004761 
	C659.000000,100.356903 659.000000,104.713799 658.606873,109.538925 
	C655.752808,110.868645 653.093994,111.381477 650.862732,112.647690 
	C635.215637,121.527130 619.597717,130.462296 604.110291,139.616074 
	C600.148315,141.957779 596.687805,145.148010 592.529541,147.981064 
	C584.372925,147.991898 576.683716,147.970062 568.994446,147.948227 
z"/>
<path fill="#E50E44" opacity="1.000000" stroke="none" 
	d="
M1.000000,245.428467 
	C9.414995,240.401093 17.903912,235.931641 26.229967,231.176987 
	C44.944355,220.490067 63.577076,209.660141 82.244690,198.891296 
	C100.626389,188.287384 119.014572,177.694702 137.390778,167.081284 
	C144.711807,162.852921 152.051788,158.654114 159.288422,154.284958 
	C161.338257,153.047333 163.053879,151.256180 164.961365,149.372437 
	C168.442352,149.026001 171.884735,149.026001 175.327133,149.026001 
	C175.520508,149.446884 175.713898,149.867767 175.907272,150.288666 
	C174.066605,151.623886 172.326630,153.132477 170.370377,154.268723 
	C132.670380,176.166000 94.956177,198.038895 57.219906,219.873611 
	C40.287300,229.671036 23.308695,239.389160 6.321934,249.092438 
	C4.905603,249.901489 3.267174,250.321716 1.365967,250.961304 
	C1.000000,249.285645 1.000000,247.571289 1.000000,245.428467 
z"/>
<path fill="#EB0A27" opacity="1.000000" stroke="none" 
	d="
M0.999998,186.460632 
	C7.015006,182.988693 13.175746,180.233841 19.016048,176.915085 
	C33.113682,168.904068 47.065002,160.635391 61.062328,152.448410 
	C62.010567,151.893784 62.850731,151.154388 63.741161,150.500931 
	C63.683735,149.999542 63.626308,149.498154 63.568882,148.996765 
	C43.025024,148.996765 22.481167,148.996765 1.468655,148.998383 
	C1.000000,149.000000 1.000000,148.500000 1.000000,148.250000 
	C25.364939,148.006195 49.729877,148.012390 74.562141,148.086456 
	C77.730141,148.437317 80.430809,148.720306 83.567757,149.013123 
	C82.268875,150.602646 80.747978,152.549408 78.766029,153.706284 
	C54.184711,168.054367 29.538639,182.291550 4.896556,196.535339 
	C3.900944,197.110825 2.779559,197.468719 1.358387,197.963989 
	C1.000000,194.307098 1.000000,190.614182 0.999998,186.460632 
z"/>
<path fill="#CE20BD" opacity="1.000000" stroke="none" 
	d="
M592.996948,147.948425 
	C596.687805,145.148010 600.148315,141.957779 604.110291,139.616074 
	C619.597717,130.462296 635.215637,121.527130 650.862732,112.647690 
	C653.093994,111.381477 655.752808,110.868645 658.606873,110.003571 
	C659.000000,112.700012 659.000000,115.400032 658.622742,118.557938 
	C657.449280,119.207779 656.556152,119.228767 655.871094,119.616875 
	C641.350952,127.842873 626.832886,136.073364 612.395203,144.442261 
	C611.289062,145.083435 610.782654,146.759171 609.531128,147.987457 
	C603.708801,147.996719 598.352844,147.972580 592.996948,147.948425 
z"/>
<path fill="#90173C" opacity="1.000000" stroke="none" 
	d="
M630.531372,0.999999 
	C627.632690,1.336062 624.265320,1.672126 619.981567,2.004909 
	C614.373474,2.027667 609.681824,2.053705 604.523804,2.042096 
	C594.369141,2.032263 584.680908,2.060077 574.526001,2.050503 
	C566.370544,2.038871 558.681641,2.064626 550.525696,2.056578 
	C541.037354,2.047619 532.016174,2.072461 522.994934,2.097304 
	C517.307373,2.072533 511.619781,2.047761 505.465027,2.058558 
	C497.308746,2.073373 489.619659,2.052618 481.003723,2.028398 
	C476.383545,2.049382 472.690308,2.073832 468.529968,2.062227 
	C461.374176,2.049805 454.685486,2.073437 447.533539,2.061389 
	C442.713013,2.049366 438.355743,2.073024 433.536560,2.060950 
	C429.048431,2.047953 425.022247,2.070687 420.529724,2.060946 
	C414.708801,2.050198 409.354156,2.071924 403.531982,2.060789 
	C393.377686,2.048038 383.691010,2.068148 373.536316,2.052376 
	C362.380676,2.038842 351.693024,2.061192 340.537231,2.046685 
	C331.380920,2.031887 322.692719,2.053945 313.536743,2.041318 
	C287.847992,2.006634 262.627045,2.006634 237.009796,2.006634 
	C237.009796,17.467916 237.009796,32.238537 236.982025,47.474434 
	C236.975571,52.963017 236.996872,57.986313 236.991501,63.476677 
	C236.984985,69.965240 237.005173,75.986740 236.999588,82.474762 
	C236.992203,88.295441 237.010559,93.649597 237.003143,99.456955 
	C236.995560,102.940247 237.013763,105.970337 237.006042,109.444061 
	C236.997192,112.258553 237.014267,114.629417 237.007080,117.437317 
	C236.999924,119.916916 237.017029,121.959473 237.009460,124.464539 
	C237.001678,128.950943 237.018555,132.974823 237.010864,137.426788 
	C237.002411,139.569901 237.018539,141.284943 237.034653,143.000000 
	C236.857925,144.519714 236.681183,146.039429 236.193268,147.779083 
	C235.912766,104.961662 235.944061,61.924297 235.973419,18.886934 
	C235.977264,13.236923 235.971191,7.586906 235.984863,1.468446 
	C367.354218,1.000000 498.708466,1.000000 630.531372,0.999999 
z"/>
<path fill="#CD21C2" opacity="1.000000" stroke="none" 
	d="
M609.997498,147.954041 
	C610.782654,146.759171 611.289062,145.083435 612.395203,144.442261 
	C626.832886,136.073364 641.350952,127.842873 655.871094,119.616875 
	C656.556152,119.228767 657.449280,119.207779 658.622742,119.007912 
	C659.000000,122.692909 659.000000,126.385826 658.609009,130.542389 
	C651.643372,134.338959 644.945740,137.455612 638.546753,141.097275 
	C635.410400,142.882202 632.828857,145.642090 629.529175,147.994766 
	C622.707275,148.003876 616.352417,147.978958 609.997498,147.954041 
z"/>
<path fill="#5F159A" opacity="1.000000" stroke="none" 
	d="
M657.881409,466.004395 
	C658.035217,458.512085 658.189087,451.019775 658.671448,443.263733 
	C659.000000,489.260834 659.000000,535.521667 659.000000,582.000000 
	C612.312683,582.000000 565.625000,582.000000 518.468628,582.000000 
	C517.996887,535.638428 517.993835,489.276917 518.209961,442.443359 
	C518.626282,441.987823 518.823425,442.004364 519.009705,442.009949 
	C518.998840,441.999054 518.977356,441.978027 518.982422,442.448547 
	C519.031250,462.280457 519.075012,481.641815 519.118774,501.003204 
	C519.091431,515.024109 519.064026,529.045044 519.033325,544.000122 
	C519.029968,556.791443 519.029968,568.648682 519.029968,580.882202 
	C522.453674,580.882202 525.228271,580.882202 528.469482,580.925781 
	C548.625183,580.940857 568.314148,580.912415 588.469788,580.927612 
	C611.801941,580.971375 634.667419,580.971375 657.884033,580.971375 
	C657.884033,566.851501 657.884033,553.426514 657.925171,539.534363 
	C657.938354,527.712463 657.910400,516.357666 657.923096,504.535645 
	C657.936279,491.380432 657.908813,478.692413 657.881409,466.004395 
z"/>
<path fill="#CC22C7" opacity="1.000000" stroke="none" 
	d="
M629.996216,147.960724 
	C632.828857,145.642090 635.410400,142.882202 638.546753,141.097275 
	C644.945740,137.455612 651.643372,134.338959 658.609009,131.003021 
	C659.000000,136.688034 659.000000,142.376083 659.000000,148.532043 
	C658.568054,149.005264 658.136169,149.010529 657.053772,148.682098 
	C647.600952,148.219177 638.798584,148.089951 629.996216,147.960724 
z"/>
<path fill="#90173C" opacity="1.000000" stroke="none" 
	d="
M1.000000,295.250000 
	C8.021951,294.990784 15.043900,294.981567 23.000820,294.975403 
	C31.956966,294.954987 39.978142,294.931488 48.466881,294.944397 
	C56.955715,294.958466 64.976982,294.936188 73.465912,294.950500 
	C81.621460,294.964081 89.309341,294.941040 97.410309,294.954407 
	C99.202248,295.021210 100.581123,295.051666 101.956146,295.337219 
	C101.955460,295.762329 101.958618,295.932373 101.961769,296.102417 
	C68.620277,296.066559 35.278790,296.030731 1.468651,295.997437 
	C1.000000,296.000000 1.000000,295.500000 1.000000,295.250000 
z"/>
<path fill="#90173C" opacity="1.000000" stroke="none" 
	d="
M659.000000,10.513437 
	C658.680847,10.531445 658.361694,10.062886 657.989868,9.293236 
	C657.937134,6.897382 657.937134,4.802622 657.937134,2.349116 
	C654.600586,2.091221 651.570251,1.856992 648.269897,1.311382 
	C651.582031,1.000000 655.164124,1.000000 659.000000,1.000000 
	C659.000000,4.006355 659.000000,7.016613 659.000000,10.513437 
z"/>
<path fill="#991D70" opacity="1.000000" stroke="none" 
	d="
M659.000000,50.533134 
	C658.640869,49.596905 658.281677,48.193813 657.931396,45.943100 
	C657.907715,41.721649 657.875122,38.347820 657.842529,34.973988 
	C658.036133,34.950333 658.229675,34.926674 658.711548,34.951508 
	C659.000000,40.022091 659.000000,45.044186 659.000000,50.533134 
z"/>
<path fill="#90173C" opacity="1.000000" stroke="none" 
	d="
M636.666687,0.999999 
	C636.411072,1.169646 635.822083,1.339293 635.116577,1.254471 
	C635.444458,1.000000 635.888916,1.000000 636.666687,0.999999 
z"/>
<path fill="#991D70" opacity="1.000000" stroke="none" 
	d="
M659.000000,25.750008 
	C658.854553,25.700741 658.709167,25.401466 658.781860,25.051098 
	C659.000000,25.000000 659.000000,25.500000 659.000000,25.750008 
z"/>
<path fill="#991D70" opacity="1.000000" stroke="none" 
	d="
M101.970505,296.564575 
	C101.958618,295.932373 101.955460,295.762329 102.257660,295.554016 
	C102.732124,297.012451 102.901237,298.509186 103.044312,300.470917 
	C103.036369,305.626099 103.054489,310.316223 103.046967,315.455322 
	C103.039688,318.605011 103.058044,321.305817 103.052940,324.471741 
	C103.046158,329.627197 103.062843,334.317505 103.055412,339.475342 
	C103.046227,347.297516 103.061157,354.652191 103.052078,362.474487 
	C103.042282,371.295197 103.056488,379.648285 103.045258,388.468567 
	C103.036644,394.624115 103.053482,400.312439 103.042091,406.467896 
	C103.029442,412.622253 103.045021,418.309509 103.028519,424.460938 
	C103.014549,429.282562 103.032684,433.639923 103.019073,438.373566 
	C103.045502,439.500305 103.103661,440.250763 103.135269,441.210358 
	C103.108727,441.419464 103.077980,441.839905 103.077980,441.839905 
	C102.726837,440.218903 102.071289,438.598328 102.068855,436.976807 
	C101.998871,390.326874 101.994347,343.676788 101.970505,296.564575 
z"/>
<path fill="#CE20BD" opacity="1.000000" stroke="none" 
	d="
M310.002869,441.857727 
	C281.923981,441.910980 253.845139,441.979736 225.766251,442.011841 
	C208.152618,442.031952 190.538910,441.996979 172.461304,441.716187 
	C171.997345,441.445648 171.996063,441.042725 172.425049,441.027069 
	C174.570724,440.995575 176.287415,440.979767 178.472168,440.976349 
	C187.291641,440.979858 195.643066,440.970917 204.463333,440.974884 
	C223.617767,440.981812 242.303360,440.975891 261.458618,440.985107 
	C273.281189,440.992676 284.634033,440.985016 296.452148,440.991119 
	C301.271759,441.009644 305.626129,441.014435 309.984924,441.228882 
	C309.989410,441.438538 310.002869,441.857727 310.002869,441.857727 
z"/>
<path fill="#AB18E5" opacity="1.000000" stroke="none" 
	d="
M310.467896,441.919250 
	C310.002869,441.857727 309.989410,441.438538 310.455780,441.223145 
	C324.282135,440.993134 337.642120,440.978516 351.470337,440.977722 
	C374.295105,441.011078 396.651642,441.030609 419.009949,441.247467 
	C419.011688,441.444794 419.019348,441.839386 419.019348,441.839386 
	C382.990540,441.886536 346.961731,441.933685 310.467896,441.919250 
z"/>
<path fill="#9C12EC" opacity="1.000000" stroke="none" 
	d="
M419.482086,441.905762 
	C419.019348,441.839386 419.011688,441.444794 419.384277,441.230896 
	C420.506439,441.001251 421.255981,440.985504 422.473450,440.983704 
	C454.984161,440.965698 487.026947,440.933716 519.069763,440.901733 
	C519.069763,440.901733 519.042358,440.934326 519.025940,441.209900 
	C519.013184,441.663940 519.016846,441.842407 519.020569,442.020874 
	C518.823425,442.004364 518.626282,441.987823 518.131958,441.979706 
	C485.204834,441.982758 452.574829,441.977448 419.482086,441.905762 
z"/>
<path fill="#CF1FB7" opacity="1.000000" stroke="none" 
	d="
M171.996063,441.042725 
	C171.996063,441.042725 171.997345,441.445648 171.996979,441.647095 
	C149.325821,441.896698 126.655037,441.944855 103.531113,441.916443 
	C103.077980,441.839905 103.108727,441.419464 103.586609,441.207947 
	C110.045166,440.984558 116.025841,440.972656 122.474518,440.971619 
	C129.631989,440.974518 136.321472,440.966553 143.478790,440.969299 
	C153.296448,441.000946 162.646255,441.021820 171.996063,441.042725 
z"/>
<path fill="#C422D9" opacity="1.000000" stroke="none" 
	d="
M260.988953,440.969940 
	C242.303360,440.975891 223.617767,440.981812 204.504700,440.629639 
	C205.950928,438.735168 207.654770,436.904999 209.724869,435.708496 
	C228.259140,424.995941 246.896240,414.461273 265.428894,403.746002 
	C294.156372,387.136200 322.797791,370.377502 351.527283,353.771240 
	C380.404205,337.079742 409.378235,320.555908 438.218903,303.802338 
	C442.405334,301.370453 446.085754,298.067505 450.000336,295.167664 
	C468.690613,295.121002 487.380859,295.074371 506.489380,295.434448 
	C505.006378,297.357269 503.262268,299.145386 501.179993,300.347992 
	C476.309021,314.712433 451.361572,328.944427 426.487030,343.302765 
	C401.760071,357.576019 377.118164,371.996521 352.393494,386.273743 
	C323.496460,402.960327 294.533508,419.532867 265.664581,436.267792 
	C263.817993,437.338257 262.534424,439.380005 260.988953,440.969940 
z"/>
<path fill="#BA1EDE" opacity="1.000000" stroke="none" 
	d="
M351.002106,440.963867 
	C337.642120,440.978516 324.282135,440.993134 310.451294,441.013489 
	C305.626129,441.014435 301.271759,441.009644 296.494080,440.643372 
	C296.887878,439.276520 297.509857,437.946625 298.553986,437.318817 
	C304.955444,433.469788 311.447906,429.771729 317.918671,426.038300 
	C336.467468,415.336060 355.023102,404.645691 373.570831,393.941589 
	C393.843567,382.241913 414.111115,370.533203 434.379669,358.826294 
	C452.779999,348.198425 471.133423,337.488342 489.596466,326.970612 
	C499.243378,321.475128 509.081726,316.315765 518.833618,311.004578 
	C518.880188,321.361725 518.926758,331.718842 518.558289,342.582214 
	C497.684967,354.765991 477.191772,366.382812 456.776398,378.134949 
	C424.564636,396.677734 392.383148,415.273590 360.256409,433.963104 
	C356.937317,435.893921 354.075897,438.611420 351.002106,440.963867 
z"/>
<path fill="#B31BE2" opacity="1.000000" stroke="none" 
	d="
M351.470337,440.977722 
	C354.075897,438.611420 356.937317,435.893921 360.256409,433.963104 
	C392.383148,415.273590 424.564636,396.677734 456.776398,378.134949 
	C477.191772,366.382812 497.684967,354.765991 518.488098,343.046448 
	C518.880249,356.361267 518.927551,369.718170 518.540833,383.544647 
	C516.731628,384.548828 515.258545,384.914001 513.995483,385.642944 
	C486.846924,401.310333 459.685455,416.956238 432.633514,432.789215 
	C428.806000,435.029358 425.534424,438.219360 422.005554,440.969727 
	C421.255981,440.985504 420.506439,441.001251 419.382538,441.033569 
	C396.651642,441.030609 374.295105,441.011078 351.470337,440.977722 
z"/>
<path fill="#CA23D1" opacity="1.000000" stroke="none" 
	d="
M172.425049,441.027069 
	C162.646255,441.021820 153.296448,441.000946 143.514893,440.622559 
	C143.993408,439.377106 144.767715,438.255188 145.833893,437.635559 
	C171.240189,422.871613 196.664841,408.139160 222.113297,393.447998 
	C248.569534,378.174957 275.062988,362.966431 301.524139,347.701874 
	C327.121063,332.935791 352.733795,318.196228 378.244263,303.281952 
	C382.094574,301.030945 385.426270,297.892853 388.997864,295.165100 
	C400.687897,295.121338 412.377960,295.077576 424.486420,295.440613 
	C418.546051,299.921051 412.334564,304.249390 405.803741,308.025574 
	C372.207977,327.450958 338.509857,346.699188 304.886414,366.076904 
	C266.236511,388.351501 227.607544,410.662720 189.030930,433.063843 
	C185.138641,435.324036 181.669571,438.313080 178.004120,440.963928 
	C176.287415,440.979767 174.570724,440.995575 172.425049,441.027069 
z"/>
<path fill="#BF20DC" opacity="1.000000" stroke="none" 
	d="
M518.903076,310.541199 
	C509.081726,316.315765 499.243378,321.475128 489.596466,326.970612 
	C471.133423,337.488342 452.779999,348.198425 434.379669,358.826294 
	C414.111115,370.533203 393.843567,382.241913 373.570831,393.941589 
	C355.023102,404.645691 336.467468,415.336060 317.918671,426.038300 
	C311.447906,429.771729 304.955444,433.469788 298.553986,437.318817 
	C297.509857,437.946625 296.887878,439.276520 296.028839,440.629639 
	C284.634033,440.985016 273.281189,440.992676 261.458618,440.985107 
	C262.534424,439.380005 263.817993,437.338257 265.664581,436.267792 
	C294.533508,419.532867 323.496460,402.960327 352.393494,386.273743 
	C377.118164,371.996521 401.760071,357.576019 426.487030,343.302765 
	C451.361572,328.944427 476.309021,314.712433 501.179993,300.347992 
	C503.262268,299.145386 505.006378,297.357269 506.953430,295.503418 
	C510.788940,295.165680 514.578674,295.165680 518.972534,295.165680 
	C518.972534,300.240570 518.972534,305.159210 518.903076,310.541199 
z"/>
<path fill="#CF1FB7" opacity="1.000000" stroke="none" 
	d="
M103.060608,423.996735 
	C103.045021,418.309509 103.029442,412.622253 103.411385,406.462341 
	C105.647568,405.269958 107.616646,404.775208 109.305000,403.796234 
	C129.231689,392.241943 149.074097,380.541901 169.021286,369.023315 
	C206.625763,347.308350 244.310867,325.732910 281.883667,303.963501 
	C286.179230,301.474701 289.972107,298.118317 293.998047,295.164185 
	C304.021240,295.119415 314.044403,295.074646 324.472046,295.425720 
	C322.060211,297.814972 319.376770,300.036804 316.406006,301.764557 
	C297.756134,312.611053 279.035736,323.336151 260.351349,334.123383 
	C238.073196,346.985474 215.807449,359.868958 193.537064,372.744507 
	C173.135620,384.539520 152.782013,396.418396 132.313690,408.096191 
	C122.675896,413.594818 112.818497,418.708588 103.060608,423.996735 
z"/>
<path fill="#C823D8" opacity="1.000000" stroke="none" 
	d="
M178.472168,440.976349 
	C181.669571,438.313080 185.138641,435.324036 189.030930,433.063843 
	C227.607544,410.662720 266.236511,388.351501 304.886414,366.076904 
	C338.509857,346.699188 372.207977,327.450958 405.803741,308.025574 
	C412.334564,304.249390 418.546051,299.921051 424.950409,295.508301 
	C433.021271,295.122803 441.046539,295.076355 449.536072,295.098816 
	C446.085754,298.067505 442.405334,301.370453 438.218903,303.802338 
	C409.378235,320.555908 380.404205,337.079742 351.527283,353.771240 
	C322.797791,370.377502 294.156372,387.136200 265.428894,403.746002 
	C246.896240,414.461273 228.259140,424.995941 209.724869,435.708496 
	C207.654770,436.904999 205.950928,438.735168 204.035858,440.616760 
	C195.643066,440.970917 187.291641,440.979858 178.472168,440.976349 
z"/>
<path fill="#CE20BD" opacity="1.000000" stroke="none" 
	d="
M103.028519,424.460938 
	C112.818497,418.708588 122.675896,413.594818 132.313690,408.096191 
	C152.782013,396.418396 173.135620,384.539520 193.537064,372.744507 
	C215.807449,359.868958 238.073196,346.985474 260.351349,334.123383 
	C279.035736,323.336151 297.756134,312.611053 316.406006,301.764557 
	C319.376770,300.036804 322.060211,297.814972 324.936035,295.493225 
	C332.686523,295.120239 340.377502,295.075623 348.488953,295.437805 
	C347.917328,296.904205 347.104828,298.269562 345.904510,298.974701 
	C336.898193,304.265625 327.818756,309.432190 318.755798,314.626495 
	C297.896240,326.581787 277.002777,338.478363 256.179535,350.496613 
	C233.781082,363.424011 211.456528,376.479370 189.082489,389.449219 
	C165.990280,402.835327 142.909790,416.242371 119.749359,429.509644 
	C114.338142,432.609406 108.625015,435.182098 103.050812,437.997314 
	C103.032684,433.639923 103.014549,429.282562 103.028519,424.460938 
z"/>
<path fill="#D11EAD" opacity="1.000000" stroke="none" 
	d="
M293.537537,295.097443 
	C289.972107,298.118317 286.179230,301.474701 281.883667,303.963501 
	C244.310867,325.732910 206.625763,347.308350 169.021286,369.023315 
	C149.074097,380.541901 129.231689,392.241943 109.305000,403.796234 
	C107.616646,404.775208 105.647568,405.269958 103.439613,405.995239 
	C103.053482,400.312439 103.036644,394.624115 103.409943,388.462830 
	C113.332764,382.686920 122.921288,377.481415 132.386230,372.060150 
	C150.801498,361.512421 169.148651,350.845703 187.521774,340.224426 
	C207.903564,328.441986 228.251984,316.601410 248.676331,304.893250 
	C258.722839,299.134155 268.907837,293.616699 279.044067,288.406647 
	C279.370270,290.843903 279.682526,292.864349 279.994812,294.884827 
	C284.355530,294.933441 288.716278,294.982086 293.537537,295.097443 
z"/>
<path fill="#CC22C7" opacity="1.000000" stroke="none" 
	d="
M388.533600,295.098419 
	C385.426270,297.892853 382.094574,301.030945 378.244263,303.281952 
	C352.733795,318.196228 327.121063,332.935791 301.524139,347.701874 
	C275.062988,362.966431 248.569534,378.174957 222.113297,393.447998 
	C196.664841,408.139160 171.240189,422.871613 145.833893,437.635559 
	C144.767715,438.255188 143.993408,439.377106 143.047043,440.611816 
	C136.321472,440.966553 129.631989,440.974518 122.510086,440.625427 
	C124.753937,438.166077 127.220490,435.700348 130.138275,434.016510 
	C168.390228,411.941833 206.727859,390.015686 244.999466,367.974976 
	C283.699799,345.687317 322.365448,323.339233 360.989838,300.920410 
	C363.570007,299.422760 365.673035,297.103088 367.997986,295.165741 
	C374.688446,295.121094 381.378876,295.076416 388.533600,295.098419 
z"/>
<path fill="#AB18E5" opacity="1.000000" stroke="none" 
	d="
M422.473450,440.983704 
	C425.534424,438.219360 428.806000,435.029358 432.633514,432.789215 
	C459.685455,416.956238 486.846924,401.310333 513.995483,385.642944 
	C515.258545,384.914001 516.731628,384.548828 518.470215,384.008728 
	C518.895508,402.662781 518.957397,421.322357 519.044556,440.441833 
	C487.026947,440.933716 454.984161,440.965698 422.473450,440.983704 
z"/>
<path fill="#CD21C2" opacity="1.000000" stroke="none" 
	d="
M367.534088,295.098236 
	C365.673035,297.103088 363.570007,299.422760 360.989838,300.920410 
	C322.365448,323.339233 283.699799,345.687317 244.999466,367.974976 
	C206.727859,390.015686 168.390228,411.941833 130.138275,434.016510 
	C127.220490,435.700348 124.753937,438.166077 122.042084,440.614563 
	C116.025841,440.972656 110.045166,440.984558 103.613159,440.998840 
	C103.103661,440.250763 103.045502,439.500305 103.019073,438.373566 
	C108.625015,435.182098 114.338142,432.609406 119.749359,429.509644 
	C142.909790,416.242371 165.990280,402.835327 189.082489,389.449219 
	C211.456528,376.479370 233.781082,363.424011 256.179535,350.496613 
	C277.002777,338.478363 297.896240,326.581787 318.755798,314.626495 
	C327.818756,309.432190 336.898193,304.265625 345.904510,298.974701 
	C347.104828,298.269562 347.917328,296.904205 348.952942,295.505493 
	C355.021027,295.121216 361.045593,295.075989 367.534088,295.098236 
z"/>
<path fill="#991D70" opacity="1.000000" stroke="none" 
	d="
M629.529175,147.994751 
	C638.798584,148.089951 647.600952,148.219177 656.738770,148.604507 
	C646.752747,148.897202 636.431396,148.963882 626.109985,148.965637 
	C532.372742,148.981613 438.635529,148.986237 344.430695,148.733765 
	C343.963104,148.473343 343.952454,148.122299 344.421967,148.079987 
	C349.598175,148.003113 354.304901,147.968582 359.475037,147.956497 
	C364.295105,147.962311 368.651733,147.945679 373.008392,147.929047 
	C380.695007,147.946716 388.381653,147.964386 396.536987,147.955688 
	C404.026337,147.946350 411.046997,147.963394 418.536163,147.953705 
	C425.026520,147.944443 431.048370,147.961899 437.538635,147.951187 
	C446.361206,147.940369 454.715332,147.957718 464.004913,147.976990 
	C471.295837,147.959747 477.651306,147.940567 484.006805,147.921387 
	C494.359283,147.944946 504.711792,147.968506 515.532288,147.963013 
	C524.021179,147.954742 532.042114,147.975525 540.530762,147.966553 
	C550.018982,147.960938 559.039490,147.985092 568.527222,147.978729 
	C576.683716,147.970062 584.372925,147.991898 592.529541,147.981079 
	C598.352844,147.972580 603.708801,147.996719 609.531128,147.987457 
	C616.352417,147.978958 622.707275,148.003876 629.529175,147.994751 
z"/>
<path fill="#991D70" opacity="1.000000" stroke="none" 
	d="
M279.978363,294.427917 
	C279.682526,292.864349 279.370270,290.843903 279.058228,287.939362 
	C279.046143,279.035645 279.033813,271.015991 279.034180,262.528198 
	C279.035522,254.707336 279.024200,247.354584 279.025269,239.535660 
	C279.028809,234.380600 279.019989,229.691696 279.023224,224.552658 
	C279.028198,221.402481 279.021118,218.702469 279.025970,215.536285 
	C279.030457,210.381516 279.023041,205.692886 279.027893,200.543533 
	C279.032532,196.391586 279.024933,192.700363 279.029785,188.544067 
	C279.035492,183.722382 279.028748,179.365768 279.034790,174.544083 
	C279.041565,169.723206 279.035522,165.367401 279.042969,160.550446 
	C279.041321,156.397125 279.026154,152.704971 279.010986,149.012817 
	C279.010986,149.012817 279.069672,148.531540 279.314026,148.316650 
	C279.558380,148.101761 279.997284,148.193176 280.015686,148.417328 
	C280.034058,148.641464 280.044647,149.091141 280.044647,149.091141 
	C280.017090,197.384415 279.989502,245.677704 279.978363,294.427917 
z"/>
<path fill="#5F159A" opacity="1.000000" stroke="none" 
	d="
M519.009705,442.009949 
	C519.016846,441.842407 519.013184,441.663940 519.044434,441.220398 
	C564.782349,440.984344 610.485413,441.013367 656.674988,441.093201 
	C653.569702,441.412994 649.980408,441.863373 646.385498,441.914795 
	C637.904053,442.036102 629.419861,441.967346 620.001404,441.974365 
	C585.703125,441.974854 552.340210,441.976440 518.977356,441.978027 
	C518.977356,441.978027 518.998840,441.999054 519.009705,442.009949 
z"/>
<path fill="#90173C" opacity="1.000000" stroke="none" 
	d="
M280.507385,149.040131 
	C280.044647,149.091141 280.034058,148.641464 280.482727,148.360474 
	C288.952637,148.044418 296.973877,148.009354 305.463684,148.001144 
	C313.619446,148.011749 321.306641,147.995483 329.459656,148.005554 
	C334.601135,148.062012 339.276794,148.092163 343.952454,148.122299 
	C343.952454,148.122299 343.963104,148.473343 343.967041,148.648895 
	C322.970703,148.879333 301.970428,148.934219 280.507385,149.040131 
z"/>
<path fill="#E31051" opacity="1.000000" stroke="none" 
	d="
M237.419266,142.999512 
	C237.018539,141.284943 237.002411,139.569901 237.365372,137.389511 
	C239.396317,136.148697 241.116653,135.491318 242.689453,134.579468 
	C258.617676,125.344833 274.486755,116.007858 290.440430,106.817581 
	C317.755035,91.082664 345.142456,75.474098 372.454681,59.735043 
	C402.207520,42.589516 431.929962,25.390795 461.599640,8.101974 
	C464.310944,6.522067 466.542633,4.119066 468.997040,2.098280 
	C472.690308,2.073832 476.383545,2.049382 480.535828,2.061038 
	C477.610657,4.592247 474.421112,7.420510 470.811279,9.529306 
	C443.883087,25.260181 416.893402,40.886349 389.879303,56.469532 
	C369.040283,68.490578 348.114563,80.361176 327.270355,92.373230 
	C307.291626,103.886513 287.368317,115.495949 267.420532,127.062950 
	C258.522522,132.222595 249.637756,137.405457 240.703110,142.500839 
	C239.902405,142.957474 238.777969,142.846436 237.419266,142.999512 
z"/>
<path fill="#DF1364" opacity="1.000000" stroke="none" 
	d="
M304.995117,147.974274 
	C296.973877,148.009354 288.952637,148.044418 280.464355,148.136322 
	C279.997284,148.193176 279.558380,148.101761 279.337097,148.075317 
	C278.217804,147.862640 277.319824,147.676376 274.997223,147.194626 
	C282.200958,142.970428 288.253326,139.381638 294.342896,135.857101 
	C330.523071,114.916550 366.687531,93.948570 402.904755,73.072197 
	C438.837311,52.359913 474.845123,31.778172 510.764282,11.042727 
	C514.994202,8.600863 518.871948,5.548801 522.953979,2.438451 
	C532.016174,2.072461 541.037354,2.047619 550.486450,2.396605 
	C549.177246,4.222923 547.609619,5.968503 545.678162,7.084489 
	C508.152100,28.767038 470.571625,50.355381 433.027069,72.005966 
	C394.333618,94.319092 355.639130,116.630745 317.027008,139.083893 
	C312.742065,141.575607 308.992798,144.988571 304.995117,147.974274 
z"/>
<path fill="#DF1364" opacity="1.000000" stroke="none" 
	d="
M278.565979,149.008118 
	C279.026154,152.704971 279.041321,156.397125 278.663147,160.551117 
	C271.811676,164.362335 265.215179,167.471848 258.918640,171.101669 
	C227.844070,189.015472 196.874863,207.111923 165.818909,225.058167 
	C130.589584,245.416031 95.278290,265.632294 60.086609,286.054840 
	C55.791447,288.547424 52.015747,291.935120 47.999313,294.908020 
	C39.978142,294.931488 31.956966,294.954987 23.468367,294.942261 
	C27.166647,291.860413 31.102055,288.420044 35.535583,285.833527 
	C63.501221,269.518463 91.568092,253.376740 119.619644,237.209198 
	C148.391373,220.626572 177.183212,204.078842 205.967407,187.517822 
	C225.972687,176.007751 246.111740,164.719864 265.876770,152.811157 
	C269.904663,150.384308 273.426910,148.358597 278.565979,149.008118 
z"/>
<path fill="#8B0BF4" opacity="1.000000" stroke="none" 
	d="
M657.532410,466.045166 
	C657.908813,478.692413 657.936279,491.380432 657.575195,504.576599 
	C646.315063,511.134186 635.368958,517.054199 624.585999,523.257812 
	C594.815552,540.385193 565.093262,557.596558 535.417969,574.888123 
	C532.703613,576.469788 530.463257,578.864868 528.002808,580.882202 
	C525.228271,580.882202 522.453674,580.882202 519.029968,580.882202 
	C519.029968,568.648682 519.029968,556.791443 519.073975,544.467102 
	C525.555359,540.685242 532.122742,537.598572 538.406067,534.013794 
	C558.863586,522.342102 579.222961,510.498077 599.609131,498.701508 
	C615.687866,489.397461 631.733765,480.036285 647.835327,470.771973 
	C650.851562,469.036560 654.062378,467.639252 657.532410,466.045166 
z"/>
<path fill="#9C12EC" opacity="1.000000" stroke="none" 
	d="
M518.982422,442.448547 
	C552.340210,441.976440 585.703125,441.974854 619.533813,442.007385 
	C617.859253,443.919739 615.956177,446.210907 613.537598,447.612518 
	C588.576111,462.078400 563.544861,476.424164 538.500183,490.745880 
	C532.341431,494.267792 526.063171,497.580536 519.479309,500.996307 
	C519.075012,481.641815 519.031250,462.280457 518.982422,442.448547 
z"/>
<path fill="#DB167A" opacity="1.000000" stroke="none" 
	d="
M373.047241,147.583984 
	C368.651733,147.945679 364.295105,147.962311 359.509888,147.612488 
	C360.052582,146.167694 360.829285,144.754150 362.023987,144.061050 
	C381.845612,132.561615 401.718719,121.150909 421.582245,109.723755 
	C450.514740,93.079391 479.458771,76.455078 508.379242,59.789928 
	C536.435120,43.623013 564.504395,27.478518 592.472351,11.160656 
	C596.902832,8.575686 600.830261,5.128374 604.990234,2.079748 
	C609.681824,2.053705 614.373474,2.027667 619.529175,2.040210 
	C617.840881,3.952489 615.924805,6.234482 613.500061,7.637365 
	C586.208252,23.427446 558.803467,39.022213 531.498779,54.790276 
	C502.761841,71.385452 474.133881,88.169403 445.395691,104.762436 
	C422.257263,118.122238 399.019318,131.309647 375.854889,144.624634 
	C374.784668,145.239807 374.002472,146.356033 373.047241,147.583984 
z"/>
<path fill="#D51B99" opacity="1.000000" stroke="none" 
	d="
M484.044556,147.578674 
	C477.651306,147.940567 471.295837,147.959747 464.473328,147.951355 
	C467.194061,145.526215 470.180237,142.783463 473.601440,140.785736 
	C500.796783,124.905800 528.053833,109.131081 555.333496,93.396156 
	C580.319092,78.984413 605.350586,64.652222 630.374268,50.306568 
	C639.284302,45.198563 648.230530,40.153870 657.501404,35.027130 
	C657.875122,38.347820 657.907715,41.721649 657.899414,45.554031 
	C649.450684,50.639664 640.973145,55.145340 632.648621,59.917892 
	C612.217163,71.631508 591.856689,83.468933 571.466675,95.254837 
	C549.208679,108.120445 526.949585,120.984100 504.691071,133.848724 
	C499.090942,137.085403 493.445648,140.247925 487.921509,143.609543 
	C486.450806,144.504517 485.351929,146.010513 484.044556,147.578674 
z"/>
<path fill="#DC1572" opacity="1.000000" stroke="none" 
	d="
M604.523804,2.042102 
	C600.830261,5.128374 596.902832,8.575686 592.472351,11.160656 
	C564.504395,27.478518 536.435120,43.623013 508.379242,59.789928 
	C479.458771,76.455078 450.514740,93.079391 421.582245,109.723755 
	C401.718719,121.150909 381.845612,132.561615 362.023987,144.061050 
	C360.829285,144.754150 360.052582,146.167694 359.046478,147.590027 
	C354.304901,147.968582 349.598175,148.003113 344.421967,148.079987 
	C339.276794,148.092163 334.601135,148.062012 329.500793,147.656586 
	C330.130676,146.311493 331.052368,145.114410 332.260925,144.408127 
	C341.438080,139.045013 350.689850,133.809891 359.883331,128.474442 
	C379.989838,116.805573 400.044220,105.046638 420.178436,93.425873 
	C441.036255,81.387474 461.991760,69.518387 482.852814,57.485607 
	C509.895599,41.887218 536.923584,26.262259 563.861084,10.483429 
	C567.844177,8.150295 571.295349,4.909022 574.992615,2.087899 
	C584.680908,2.060077 594.369141,2.032263 604.523804,2.042102 
z"/>
<path fill="#DE146B" opacity="1.000000" stroke="none" 
	d="
M574.526001,2.050512 
	C571.295349,4.909022 567.844177,8.150295 563.861084,10.483429 
	C536.923584,26.262259 509.895599,41.887218 482.852814,57.485607 
	C461.991760,69.518387 441.036255,81.387474 420.178436,93.425873 
	C400.044220,105.046638 379.989838,116.805573 359.883331,128.474442 
	C350.689850,133.809891 341.438080,139.045013 332.260925,144.408127 
	C331.052368,145.114410 330.130676,146.311493 329.034973,147.630249 
	C321.306641,147.995483 313.619446,148.011749 305.463684,148.001144 
	C308.992798,144.988571 312.742065,141.575607 317.027008,139.083893 
	C355.639130,116.630745 394.333618,94.319092 433.027069,72.005966 
	C470.571625,50.355381 508.152100,28.767038 545.678162,7.084489 
	C547.609619,5.968503 549.177246,4.222923 550.953491,2.430407 
	C558.681641,2.064626 566.370544,2.038871 574.526001,2.050512 
z"/>
<path fill="#E3104E" opacity="1.000000" stroke="none" 
	d="
M468.529968,2.062226 
	C466.542633,4.119066 464.310944,6.522067 461.599640,8.101974 
	C431.929962,25.390795 402.207520,42.589516 372.454681,59.735043 
	C345.142456,75.474098 317.755035,91.082664 290.440430,106.817581 
	C274.486755,116.007858 258.617676,125.344833 242.689453,134.579468 
	C241.116653,135.491318 239.396317,136.148697 237.389954,136.961456 
	C237.018555,132.974823 237.001678,128.950943 237.383240,124.458435 
	C240.220032,122.974396 242.803574,122.211510 245.074844,120.905548 
	C277.452850,102.288422 309.791290,83.602470 342.133881,64.923729 
	C374.332642,46.328049 406.546478,27.758142 438.688965,9.065671 
	C442.016937,7.130304 444.904755,4.438117 447.996765,2.097078 
	C454.685486,2.073437 461.374176,2.049805 468.529968,2.062226 
z"/>
<path fill="#E70D3A" opacity="1.000000" stroke="none" 
	d="
M237.028931,99.003754 
	C237.010559,93.649597 236.992203,88.295441 237.373459,82.466385 
	C239.315186,81.422638 240.976654,81.061356 242.381409,80.253647 
	C261.927216,69.015297 281.439301,57.718292 300.956787,46.430676 
	C323.916809,33.152100 346.893250,19.901579 369.793243,6.520254 
	C371.483185,5.532767 372.613708,3.587985 374.004303,2.088256 
	C383.691010,2.068148 393.377686,2.048038 403.489502,2.402247 
	C402.994476,3.656452 402.200287,4.749188 401.133087,5.380385 
	C395.706177,8.590238 390.193512,11.654548 384.738403,14.817389 
	C364.788849,26.384071 344.858734,37.984322 324.905243,49.544231 
	C301.936890,62.850769 278.991882,76.198509 255.946625,89.370689 
	C249.810165,92.878159 243.343826,95.808456 237.028931,99.003754 
z"/>
<path fill="#E90B30" opacity="1.000000" stroke="none" 
	d="
M373.536316,2.052374 
	C372.613708,3.587985 371.483185,5.532767 369.793243,6.520254 
	C346.893250,19.901579 323.916809,33.152100 300.956787,46.430676 
	C281.439301,57.718292 261.927216,69.015297 242.381409,80.253647 
	C240.976654,81.061356 239.315186,81.422638 237.399216,81.999863 
	C237.005173,75.986740 236.984985,69.965240 237.361664,63.468311 
	C240.714478,61.543098 243.766296,60.259399 246.611588,58.617744 
	C273.932495,42.854378 301.255768,27.094145 328.477295,11.160357 
	C332.906708,8.567654 336.841797,5.130423 341.005371,2.083541 
	C351.693024,2.061192 362.380676,2.038842 373.536316,2.052374 
z"/>
<path fill="#EC0920" opacity="1.000000" stroke="none" 
	d="
M237.009796,47.009155 
	C237.009796,32.238537 237.009796,17.467916 237.009796,2.006634 
	C262.627045,2.006634 287.847992,2.006634 313.493286,2.384623 
	C312.859497,3.720665 311.930206,4.899432 310.723907,5.603712 
	C292.178162,16.431282 273.643738,27.280148 254.994827,37.928181 
	C249.170334,41.253811 243.014145,43.998524 237.009796,47.009155 
z"/>
<path fill="#E60E41" opacity="1.000000" stroke="none" 
	d="
M237.003143,99.456955 
	C243.343826,95.808456 249.810165,92.878159 255.946625,89.370689 
	C278.991882,76.198509 301.936890,62.850769 324.905243,49.544231 
	C344.858734,37.984322 364.788849,26.384071 384.738403,14.817389 
	C390.193512,11.654548 395.706177,8.590238 401.133087,5.380385 
	C402.200287,4.749188 402.994476,3.656452 403.957062,2.435109 
	C409.354156,2.071924 414.708801,2.050198 420.474792,2.392141 
	C419.641602,3.810407 418.523346,5.083282 417.133820,5.887485 
	C386.827271,23.427940 356.481812,40.901161 326.162598,58.419830 
	C305.184296,70.541260 284.277466,82.787170 263.250610,94.823524 
	C254.630539,99.757889 245.778488,104.286972 237.031952,109.000420 
	C237.013763,105.970337 236.995560,102.940247 237.003143,99.456955 
z"/>
<path fill="#E50F49" opacity="1.000000" stroke="none" 
	d="
M447.533539,2.061397 
	C444.904755,4.438117 442.016937,7.130304 438.688965,9.065671 
	C406.546478,27.758142 374.332642,46.328049 342.133881,64.923729 
	C309.791290,83.602470 277.452850,102.288422 245.074844,120.905548 
	C242.803574,122.211510 240.220032,122.974396 237.407928,123.995926 
	C237.017029,121.959473 236.999924,119.916916 237.363358,117.399315 
	C239.849060,115.936142 242.040863,115.097763 244.046158,113.937088 
	C268.746338,99.640465 293.391876,85.249214 318.105743,70.976326 
	C355.468170,49.398594 392.884308,27.913866 430.221558,6.292834 
	C431.770966,5.395629 432.752411,3.517710 433.998444,2.096687 
	C438.355743,2.073024 442.713013,2.049366 447.533539,2.061397 
z"/>
<path fill="#E50E44" opacity="1.000000" stroke="none" 
	d="
M433.536560,2.060956 
	C432.752411,3.517710 431.770966,5.395629 430.221558,6.292834 
	C392.884308,27.913866 355.468170,49.398594 318.105743,70.976326 
	C293.391876,85.249214 268.746338,99.640465 244.046158,113.937088 
	C242.040863,115.097763 239.849060,115.936142 237.387634,116.962273 
	C237.014267,114.629417 236.997192,112.258553 237.006042,109.444054 
	C245.778488,104.286972 254.630539,99.757889 263.250610,94.823524 
	C284.277466,82.787170 305.184296,70.541260 326.162598,58.419830 
	C356.481812,40.901161 386.827271,23.427940 417.133820,5.887485 
	C418.523346,5.083282 419.641602,3.810407 420.941101,2.424616 
	C425.022247,2.070687 429.048431,2.047953 433.536560,2.060956 
z"/>
<path fill="#EB0A27" opacity="1.000000" stroke="none" 
	d="
M236.982025,47.474438 
	C243.014145,43.998524 249.170334,41.253811 254.994827,37.928181 
	C273.643738,27.280148 292.178162,16.431282 310.723907,5.603712 
	C311.930206,4.899432 312.859497,3.720665 313.961090,2.419307 
	C322.692719,2.053945 331.380920,2.031887 340.537231,2.046686 
	C336.841797,5.130423 332.906708,8.567654 328.477295,11.160357 
	C301.255768,27.094145 273.932495,42.854378 246.611588,58.617744 
	C243.766296,60.259399 240.714478,61.543098 237.388336,63.001251 
	C236.996872,57.986313 236.975571,52.963017 236.982025,47.474438 
z"/>
<path fill="#8409F8" opacity="1.000000" stroke="none" 
	d="
M528.469482,580.925781 
	C530.463257,578.864868 532.703613,576.469788 535.417969,574.888123 
	C565.093262,557.596558 594.815552,540.385193 624.585999,523.257812 
	C635.368958,517.054199 646.315063,511.134186 657.534607,505.043823 
	C657.910400,516.357666 657.938354,527.712463 657.577271,539.575928 
	C637.248352,551.424622 617.279785,562.714722 597.396973,574.153931 
	C594.074707,576.065369 591.125000,578.624207 588.003113,580.883911 
	C568.314148,580.912415 548.625183,580.940857 528.469482,580.925781 
z"/>
<path fill="#7E06FB" opacity="1.000000" stroke="none" 
	d="
M588.469788,580.927612 
	C591.125000,578.624207 594.074707,576.065369 597.396973,574.153931 
	C617.279785,562.714722 637.248352,551.424622 657.536133,540.042969 
	C657.884033,553.426514 657.884033,566.851501 657.884033,580.971375 
	C634.667419,580.971375 611.801941,580.971375 588.469788,580.927612 
z"/>
<path fill="#DE146B" opacity="1.000000" stroke="none" 
	d="
M48.466881,294.944397 
	C52.015747,291.935120 55.791447,288.547424 60.086609,286.054840 
	C95.278290,265.632294 130.589584,245.416031 165.818909,225.058167 
	C196.874863,207.111923 227.844070,189.015472 258.918640,171.101669 
	C265.215179,167.471848 271.811676,164.362335 278.649658,161.012268 
	C279.035522,165.367401 279.041565,169.723206 278.672424,174.576309 
	C276.044952,176.133270 273.702454,177.036652 271.553772,178.276031 
	C239.666260,196.669174 207.820404,215.134567 175.931946,233.526062 
	C144.903427,251.421585 113.806961,269.199646 82.829597,287.183044 
	C79.259628,289.255554 76.261505,292.313049 72.998253,294.913879 
	C64.976982,294.936188 56.955715,294.958466 48.466881,294.944397 
z"/>
<path fill="#DC1572" opacity="1.000000" stroke="none" 
	d="
M73.465912,294.950500 
	C76.261505,292.313049 79.259628,289.255554 82.829597,287.183044 
	C113.806961,269.199646 144.903427,251.421585 175.931946,233.526062 
	C207.820404,215.134567 239.666260,196.669174 271.553772,178.276031 
	C273.702454,177.036652 276.044952,176.133270 278.659668,175.041382 
	C279.028748,179.365768 279.035492,183.722382 278.655823,188.545380 
	C273.006378,191.771301 267.641235,194.353729 262.497711,197.320450 
	C237.772568,211.581619 213.132370,225.990036 188.414154,240.263275 
	C159.524658,256.945160 130.569183,273.512878 101.706406,290.240692 
	C99.854965,291.313690 98.554169,293.336853 96.997223,294.917999 
	C89.309341,294.941040 81.621460,294.964081 73.465912,294.950500 
z"/>
<path fill="#DB167A" opacity="1.000000" stroke="none" 
	d="
M97.410301,294.954407 
	C98.554169,293.336853 99.854965,291.313690 101.706406,290.240692 
	C130.569183,273.512878 159.524658,256.945160 188.414154,240.263275 
	C213.132370,225.990036 237.772568,211.581619 262.497711,197.320450 
	C267.641235,194.353729 273.006378,191.771301 278.643372,189.010468 
	C279.024933,192.700363 279.032532,196.391586 278.651611,200.546844 
	C277.018097,201.428345 275.660461,201.650040 274.544830,202.292221 
	C253.268387,214.539246 232.008743,226.815613 210.769318,239.126801 
	C179.772720,257.093567 148.824142,275.143494 117.777718,293.023651 
	C113.089760,295.723511 107.983261,297.696625 103.070358,300.005890 
	C102.901237,298.509186 102.732124,297.012451 102.261497,295.298950 
	C100.581123,295.051666 99.202248,295.021210 97.410301,294.954407 
z"/>
<path fill="#D41CA1" opacity="1.000000" stroke="none" 
	d="
M279.021484,262.996338 
	C279.033813,271.015991 279.046143,279.035645 279.044312,287.522583 
	C268.907837,293.616699 258.722839,299.134155 248.676331,304.893250 
	C228.251984,316.601410 207.903564,328.441986 187.521774,340.224426 
	C169.148651,350.845703 150.801498,361.512421 132.386230,372.060150 
	C122.921288,377.481415 113.332764,382.686920 103.435394,387.995636 
	C103.056488,379.648285 103.042282,371.295197 103.432037,362.471558 
	C108.828926,359.509277 113.962326,357.261749 118.790779,354.484100 
	C141.230621,341.575134 163.573410,328.497620 185.974945,315.521851 
	C211.393478,300.798523 236.807037,286.066010 262.295166,271.463867 
	C267.710297,268.361542 273.437866,265.804565 279.021484,262.996338 
z"/>
<path fill="#D61A94" opacity="1.000000" stroke="none" 
	d="
M279.034180,262.528198 
	C273.437866,265.804565 267.710297,268.361542 262.295166,271.463867 
	C236.807037,286.066010 211.393478,300.798523 185.974945,315.521851 
	C163.573410,328.497620 141.230621,341.575134 118.790779,354.484100 
	C113.962326,357.261749 108.828926,359.509277 103.456039,362.003906 
	C103.061157,354.652191 103.046227,347.297516 103.424355,339.466675 
	C112.985649,334.040863 122.260071,329.276794 131.300430,324.103668 
	C151.311417,312.652832 171.197815,300.984406 191.147903,289.427002 
	C214.111984,276.123535 237.048447,262.771454 260.089630,249.602722 
	C266.222992,246.097290 272.695862,243.185928 279.012878,240.001831 
	C279.024200,247.354584 279.035522,254.707336 279.034180,262.528198 
z"/>
<path fill="#D8198B" opacity="1.000000" stroke="none" 
	d="
M279.025269,239.535660 
	C272.695862,243.185928 266.222992,246.097290 260.089630,249.602722 
	C237.048447,262.771454 214.111984,276.123535 191.147903,289.427002 
	C171.197815,300.984406 151.311417,312.652832 131.300430,324.103668 
	C122.260071,329.276794 112.985649,334.040863 103.448471,338.999146 
	C103.062843,334.317505 103.046158,329.627197 103.416924,324.464020 
	C111.511642,319.812683 119.312698,315.797119 126.908508,311.424988 
	C149.347656,298.509125 171.697021,285.437347 194.097824,272.454681 
	C217.073685,259.138733 240.026764,245.782349 263.088196,232.615952 
	C268.183746,229.706757 273.692596,227.521439 279.011139,225.002808 
	C279.019989,229.691696 279.028809,234.380600 279.025269,239.535660 
z"/>
<path fill="#DA177E" opacity="1.000000" stroke="none" 
	d="
M103.044312,300.470917 
	C107.983261,297.696625 113.089760,295.723511 117.777718,293.023651 
	C148.824142,275.143494 179.772720,257.093567 210.769318,239.126801 
	C232.008743,226.815613 253.268387,214.539246 274.544830,202.292221 
	C275.660461,201.650040 277.018097,201.428345 278.639343,201.007599 
	C279.023041,205.692886 279.030457,210.381516 278.635864,215.535629 
	C276.986145,216.339401 275.601807,216.436142 274.511536,217.052780 
	C261.654175,224.324722 248.808472,231.618530 236.021896,239.014130 
	C196.233307,262.027435 156.485168,285.110779 116.679993,308.095337 
	C112.280762,310.635529 107.614838,312.713867 103.072601,315.006378 
	C103.054489,310.316223 103.036369,305.626099 103.044312,300.470917 
z"/>
<path fill="#D91884" opacity="1.000000" stroke="none" 
	d="
M103.046967,315.455322 
	C107.614838,312.713867 112.280762,310.635529 116.679993,308.095337 
	C156.485168,285.110779 196.233307,262.027435 236.021896,239.014130 
	C248.808472,231.618530 261.654175,224.324722 274.511536,217.052780 
	C275.601807,216.436142 276.986145,216.339401 278.623962,216.001785 
	C279.021118,218.702469 279.028198,221.402481 279.023224,224.552643 
	C273.692596,227.521439 268.183746,229.706757 263.088196,232.615952 
	C240.026764,245.782349 217.073685,259.138733 194.097824,272.454681 
	C171.697021,285.437347 149.347656,298.509125 126.908508,311.424988 
	C119.312698,315.797119 111.511642,319.812683 103.440392,323.998871 
	C103.058044,321.305817 103.039688,318.605011 103.046967,315.455322 
z"/>
</svg>